<svg width="19" height="14" viewBox="0 0 19 14" fill="none" xmlns="http://www.w3.org/2000/svg">
<rect width="19" height="14" fill="#1E1E1E"/>
<g id="Home" clip-path="url(#clip0_0_1)">
<rect width="1440" height="9393.84" transform="translate(-984 -1270)" fill="black"/>
<g id="Frame 1000001129">
<g id="div.cmp-tickets">
<rect width="1440" height="542" transform="translate(-984 -418)" fill="black"/>
<g id="div.tickets">
<g id="cards / vertical">
<g clip-path="url(#clip1_0_1)">
<rect x="-254" y="-358" width="313" height="422" rx="12" fill="black"/>
<g id="Text box">
<path id="Vector" d="M18.1301 6.41181L11.693 0L10.5121 1.17637L15.5234 6.16805H0.835218C0.373342 6.16805 0 6.54077 0 7C0 7.45923 0.373342 7.83195 0.835218 7.83195H15.5234L10.5121 12.8236L11.693 14L18.1301 7.58819C18.4566 7.2629 18.4566 6.73711 18.1301 6.41181Z" fill="#F2F2F2"/>
</g>
</g>
<rect x="-253.5" y="-357.5" width="312" height="421" rx="11.5" stroke="url(#paint0_radial_0_1)"/>
<rect x="-253.5" y="-357.5" width="312" height="421" rx="11.5" stroke="url(#paint1_radial_0_1)"/>
<rect x="-253.5" y="-357.5" width="312" height="421" rx="11.5" stroke="url(#paint2_radial_0_1)"/>
</g>
</g>
</g>
</g>
</g>
<defs>
<radialGradient id="paint0_radial_0_1" cx="0" cy="0" r="1" gradientUnits="userSpaceOnUse" gradientTransform="translate(125.657 -198.523) rotate(167.809) scale(522.83 282.819)">
<stop stop-color="white"/>
<stop offset="1" stop-color="white" stop-opacity="0"/>
</radialGradient>
<radialGradient id="paint1_radial_0_1" cx="0" cy="0" r="1" gradientUnits="userSpaceOnUse" gradientTransform="translate(-282.015 -603.349) rotate(52.6628) scale(426.874 283.618)">
<stop stop-color="white"/>
<stop offset="1" stop-color="white" stop-opacity="0"/>
</radialGradient>
<radialGradient id="paint2_radial_0_1" cx="0" cy="0" r="1" gradientUnits="userSpaceOnUse" gradientTransform="translate(-379.586 212.027) rotate(-11.6865) scale(391.64 211.56)">
<stop stop-color="white"/>
<stop offset="1" stop-color="white" stop-opacity="0"/>
</radialGradient>
<clipPath id="clip0_0_1">
<rect width="1440" height="9393.84" fill="white" transform="translate(-984 -1270)"/>
</clipPath>
<clipPath id="clip1_0_1">
<rect x="-254" y="-358" width="313" height="422" rx="12" fill="white"/>
</clipPath>
</defs>
</svg>
