<svg width="100" height="92" viewBox="0 0 100 92" fill="none" xmlns="http://www.w3.org/2000/svg">
<path d="M98.7167 50.325L75.9792 40.8542L66.5083 18.1167C65.8583 16.5625 63.3083 16.5625 62.6583 18.1167L53.1875 40.8542L30.45 50.325C29.6708 50.65 29.1667 51.4083 29.1667 52.25C29.1667 53.0917 29.6708 53.85 30.45 54.175L53.1875 63.6458L62.6583 86.3833C62.9833 87.1625 63.7417 87.6667 64.5833 87.6667C65.425 87.6667 66.1833 87.1625 66.5083 86.3833L75.9792 63.6458L98.7167 54.175C99.4958 53.85 100 53.0917 100 52.25C100 51.4083 99.4958 50.65 98.7167 50.325ZM44.4083 21.1042L29.775 16.225L24.8958 1.59167C24.325 -0.108331 21.5083 -0.108331 20.9417 1.59167L16.0583 16.225L1.425 21.1042C0.575 21.3917 0 22.1875 0 23.0833C0 23.9792 0.575 24.775 1.425 25.0625L16.0625 29.9417L20.9417 44.5792C21.225 45.425 22.0208 46 22.9167 46C23.8125 46 24.6083 45.425 24.8958 44.575L29.775 29.9375L44.4125 25.0583C45.2583 24.775 45.8333 23.9792 45.8333 23.0833C45.8333 22.1875 45.2583 21.3917 44.4083 21.1042ZM36.075 75.2708L27.6875 72.475L24.8917 64.0875C24.3208 62.3875 21.5042 62.3875 20.9375 64.0875L18.1417 72.475L9.75417 75.2708C8.90833 75.5583 8.33333 76.3542 8.33333 77.25C8.33333 78.1458 8.90833 78.9417 9.75833 79.2292L18.1458 82.025L20.9417 90.4125C21.225 91.2583 22.0208 91.8333 22.9167 91.8333C23.8125 91.8333 24.6083 91.2583 24.8958 90.4083L27.6917 82.0208L36.0792 79.225C36.925 78.9417 37.5 78.1458 37.5 77.25C37.5 76.3542 36.925 75.5583 36.075 75.2708Z" fill="#BFB9FA"/>
</svg>
