<?xml version="1.0" encoding="UTF-8" standalone="no"?>
<svg xmlns="http://www.w3.org/2000/svg" version="1.2" baseProfile="tiny" viewBox="0.00 0.00 1024.00 1024.00">
<g stroke-width="2.00" fill="none" stroke-linecap="butt">
<path stroke="#7f8585" vector-effect="non-scaling-stroke" d="
  M 771.91 787.16
  Q 775.35 784.19 778.52 780.85
  C 805.06 752.87 827.20 721.72 844.18 686.82
  Q 852.62 669.48 859.45 651.43
  Q 862.49 643.39 865.32 633.94
  Q 869.28 620.71 870.36 616.17
  C 874.47 598.97 877.74 581.83 879.63 564.81
  Q 885.43 512.65 878.09 461.25
  Q 869.83 403.42 844.04 350.69
  Q 839.58 341.56 834.70 332.96
  C 804.21 279.21 760.49 232.28 708.50 199.18
  Q 681.84 182.21 654.01 170.12
  Q 631.60 160.39 601.00 152.14
  Q 549.93 138.37 495.98 140.39
  Q 484.60 140.82 475.93 141.84
  Q 449.04 145.02 431.03 149.45
  Q 412.67 153.96 388.21 162.24
  Q 375.20 166.65 362.49 172.43
  Q 303.09 199.48 256.41 243.38
  Q 234.16 264.29 215.95 288.83
  C 195.92 315.82 180.00 342.58 167.68 372.25
  Q 160.18 390.33 153.41 413.33
  Q 145.70 439.54 141.99 472.29
  Q 138.53 502.80 139.31 532.35
  Q 140.44 574.79 150.82 616.01
  Q 157.66 643.16 168.04 666.66
  Q 173.93 680.00 180.23 692.81
  Q 189.75 712.16 205.60 735.05
  Q 222.03 758.76 238.93 776.25
  Q 245.71 783.26 253.05 790.41
  Q 280.86 817.53 313.76 837.59
  Q 333.58 849.67 354.08 859.46
  Q 378.90 871.30 407.17 879.81
  C 421.69 884.18 437.93 887.72 452.32 890.29
  Q 503.25 899.41 555.40 892.20
  Q 594.35 886.82 632.64 873.95
  C 638.89 871.85 645.24 869.05 651.51 866.65
  Q 658.12 864.13 665.37 860.64
  Q 696.39 845.71 717.46 831.59
  Q 743.42 814.20 771.09 788.18
  Q 771.33 787.96 771.48 787.69
  Q 771.65 787.39 771.91 787.16"
/>
<path stroke="#072431" vector-effect="non-scaling-stroke" d="
  M 302.53 643.87
  L 305.79 644.05
  Q 305.94 644.06 305.80 644.11
  C 304.75 644.46 303.84 644.82 302.70 644.77
  Q 297.64 644.56 291.92 644.89
  C 289.41 645.03 287.23 644.07 284.65 644.46
  Q 284.50 644.49 284.45 644.63
  Q 284.37 644.90 284.08 644.90
  Q 279.48 644.83 275.02 645.12
  C 272.96 645.25 271.12 644.68 269.03 645.02
  Q 266.86 645.36 264.47 645.40
  Q 261.89 645.43 259.33 646.38
  Q 258.95 646.52 258.81 646.90
  Q 257.83 649.73 256.02 652.63
  Q 255.15 654.03 254.82 655.36
  Q 254.40 657.04 253.09 658.31
  Q 252.69 658.69 252.54 659.22
  Q 252.01 661.11 250.47 662.32
  Q 250.05 662.65 250.55 662.46
  Q 250.70 662.40 250.77 662.58
  Q 250.88 662.84 250.61 662.89
  L 247.46 663.46"
/>
<path stroke="#7f8585" vector-effect="non-scaling-stroke" d="
  M 247.46 663.46
  L 215.55 663.39
  Q 214.91 663.39 215.17 663.98
  Q 222.50 680.58 232.14 695.40
  Q 232.38 695.77 232.82 695.77
  L 270.45 695.96
  Q 271.30 695.96 270.70 695.35
  L 255.32 679.51
  A 0.41 0.41 0.0 0 1 255.60 678.81
  Q 261.03 678.59 266.22 678.57
  Q 308.55 678.33 350.71 678.66
  C 384.71 678.93 420.00 685.72 450.21 700.79
  C 475.11 713.22 495.65 732.64 507.86 757.88
  C 508.96 760.16 509.60 762.67 510.61 764.99
  Q 511.00 765.88 511.29 764.95
  Q 517.19 746.07 530.63 731.10
  C 543.10 717.21 557.58 706.29 574.90 698.33
  Q 587.25 692.66 595.56 690.37
  C 605.10 687.75 614.78 684.96 623.92 683.29
  Q 648.86 678.75 675.00 678.58
  Q 707.82 678.37 746.51 678.72
  Q 755.38 678.80 763.87 678.54
  A 0.84 0.83 60.0 0 1 764.35 678.67
  Q 764.96 679.03 764.77 679.36
  Q 764.70 679.49 764.60 679.61
  Q 757.37 688.09 749.20 695.21
  A 0.24 0.23 40.9 0 0 749.23 695.58
  Q 749.86 696.02 750.64 696.00
  Q 770.72 695.71 788.85 695.87
  Q 789.34 695.88 789.61 695.47
  Q 791.58 692.54 793.35 689.07
  Q 798.60 678.82 805.54 664.93
  Q 806.16 663.68 804.77 663.66
  L 792.30 663.48"
/>
<path stroke="#072431" vector-effect="non-scaling-stroke" d="
  M 792.30 663.48
  Q 791.69 662.69 789.55 663.04
  A 1.09 1.09 0.0 0 1 788.28 662.04
  Q 788.23 661.37 787.62 661.10
  A 0.81 0.81 0.0 0 1 787.16 660.20
  Q 787.45 658.75 787.61 657.15
  Q 787.74 655.83 787.03 654.15
  Q 786.28 652.38 786.55 650.22
  Q 786.61 649.74 786.39 649.31
  Q 786.01 648.58 786.17 647.79
  C 786.35 646.85 785.87 646.06 784.96 645.75
  Q 784.73 645.67 784.97 645.61
  Q 785.02 645.59 785.07 645.56
  Q 785.61 645.19 784.95 645.19
  Q 784.45 645.20 784.01 644.90
  Q 783.57 644.60 783.03 644.64
  Q 781.21 644.76 779.66 644.41
  Q 778.93 644.25 779.67 644.35
  Q 782.45 644.70 785.33 643.97"
/>
<path stroke="#7f8585" vector-effect="non-scaling-stroke" d="
  M 785.33 643.97
  L 814.89 643.97
  Q 815.40 643.97 815.60 643.50
  Q 816.32 641.77 816.93 640.00
  C 822.27 624.56 826.02 608.40 829.58 592.25
  Q 829.69 591.73 829.16 591.74
  L 808.99 591.76
  Q 808.40 591.76 808.36 592.35
  Q 807.63 603.81 798.80 610.18
  Q 787.73 618.16 776.60 614.10
  C 766.98 610.59 760.67 602.71 760.42 592.24
  C 760.24 584.24 764.82 575.70 771.38 571.80
  Q 779.75 566.81 789.47 568.60
  C 792.85 569.22 795.43 571.19 799.01 571.21
  Q 815.92 571.35 831.90 571.34
  A 1.11 1.10 3.9 0 0 833.00 570.39
  Q 835.09 555.43 836.35 541.17
  A 0.24 0.23 3.2 0 0 836.11 540.91
  L 663.32 540.91
  Q 662.15 540.91 661.68 541.99
  Q 655.53 556.48 640.36 560.35
  C 631.73 562.56 621.71 560.24 615.16 554.78
  Q 600.95 542.94 605.09 524.59
  C 607.50 513.88 614.98 506.37 625.52 503.11
  C 640.93 498.35 656.34 506.40 662.55 521.69
  Q 662.80 522.30 663.47 522.30
  L 836.71 522.18
  Q 837.18 522.18 837.19 521.70
  Q 837.58 499.86 834.61 477.23
  Q 834.57 476.91 834.24 476.91
  L 794.16 476.96
  A 0.60 0.58 -81.2 0 0 793.60 477.38
  Q 789.01 492.78 773.67 497.57
  Q 764.84 500.32 757.18 497.44
  Q 742.88 492.07 738.12 477.32
  Q 737.95 476.80 737.41 476.80
  L 622.95 477.10
  Q 622.39 477.10 622.42 476.53
  C 622.83 469.28 623.60 462.22 623.53 454.92
  C 623.28 425.77 613.15 398.17 593.57 376.56
  Q 570.92 351.57 535.95 343.07
  Q 528.58 341.28 521.13 340.58
  A 0.62 0.62 0.0 0 1 520.57 339.97
  L 520.51 321.00
  A 0.68 0.68 0.0 0 1 521.26 320.32
  L 536.26 321.95
  A 0.45 0.45 0.0 0 0 536.76 321.50
  L 536.75 260.02
  Q 536.75 259.55 536.31 259.36
  C 526.18 254.99 518.16 244.97 518.31 233.45
  Q 518.56 213.56 536.44 205.80
  A 0.84 0.84 0.0 0 0 536.94 205.03
  L 536.83 184.38
  A 0.53 0.52 -89.4 0 0 536.33 183.86
  Q 515.10 182.96 496.94 183.30
  C 472.36 183.77 444.68 189.11 420.28 196.52
  Q 395.17 204.13 365.91 218.70
  Q 353.37 224.95 342.00 232.33
  A 0.80 0.80 0.0 0 0 341.89 233.59
  L 375.47 265.02
  A 0.71 0.71 0.0 0 0 376.42 265.05
  C 390.27 253.47 410.49 258.09 417.97 275.00
  C 422.82 285.97 419.50 296.38 411.21 304.56
  A 1.28 1.28 0.0 0 0 411.05 306.17
  L 435.46 342.30
  A 0.70 0.70 0.0 0 0 436.45 342.48
  Q 450.23 332.86 466.22 327.31
  Q 466.73 327.14 466.73 326.60
  L 466.76 268.71
  A 0.81 0.80 -88.5 0 0 466.00 267.90
  C 463.03 267.76 459.98 266.62 457.59 264.94
  C 445.44 256.42 442.65 240.96 450.85 228.75
  C 457.60 218.70 470.20 215.36 481.43 219.07
  Q 490.24 221.99 495.26 230.76
  C 502.31 243.11 498.03 257.20 486.63 265.29
  A 1.38 1.37 72.6 0 0 486.04 266.42
  L 485.86 320.77
  Q 485.85 321.93 487.02 321.80
  L 502.97 319.93
  A 0.45 0.44 81.9 0 1 503.46 320.30
  Q 503.64 321.45 503.63 322.73
  Q 503.46 341.88 503.49 358.93
  C 503.50 362.80 504.82 367.18 503.42 370.74
  C 500.28 378.73 490.12 378.67 486.97 370.72
  Q 486.06 368.44 486.23 364.68
  Q 486.77 353.00 486.41 342.86
  Q 486.41 342.59 486.14 342.66
  Q 476.30 345.31 466.69 348.96
  C 461.59 350.90 456.75 353.78 451.74 355.90
  A 0.92 0.92 0.0 0 0 451.46 357.41
  L 460.96 366.55
  A 0.92 0.89 -22.3 0 0 461.59 366.80
  Q 462.54 366.80 463.49 366.50
  C 466.80 365.48 470.79 367.76 472.67 370.25
  C 477.38 376.50 473.30 384.72 466.09 386.38
  Q 459.60 387.88 453.83 383.30
  C 447.77 378.49 441.85 374.13 436.99 367.89
  Q 436.59 367.38 436.12 367.82
  C 429.29 374.15 422.47 381.18 417.95 389.01
  Q 417.59 389.64 418.32 389.68
  Q 428.82 390.24 439.73 389.49
  C 451.16 388.70 456.26 401.23 445.43 407.13
  Q 443.86 407.98 441.86 407.76
  C 439.14 407.44 436.49 407.00 433.75 407.02
  Q 421.93 407.15 409.26 406.75
  A 0.39 0.39 0.0 0 0 408.91 406.94
  Q 406.76 410.45 405.05 414.04
  A 0.05 0.05 0.0 0 0 405.09 414.11
  Q 415.57 415.21 425.20 414.55
  C 430.29 414.20 435.01 414.95 436.97 420.10
  C 439.38 426.45 434.10 431.98 427.89 431.80
  Q 414.94 431.42 401.20 431.50
  Q 400.40 431.51 400.27 432.29
  L 399.07 439.75
  Q 398.93 440.65 399.84 440.64
  Q 424.68 440.46 446.73 440.51
  C 449.08 440.51 451.43 439.88 453.74 440.02
  C 460.91 440.45 465.73 448.80 460.43 454.64
  Q 457.08 458.33 452.64 458.23
  Q 427.63 457.61 398.87 457.77
  Q 398.50 457.77 398.56 458.15
  Q 399.41 463.15 399.35 467.12
  A 0.44 0.44 0.0 0 0 399.79 467.57
  Q 409.64 467.66 418.81 467.72
  Q 420.91 467.74 423.20 467.43
  Q 430.41 466.46 433.82 471.88
  C 437.46 477.68 432.27 485.54 425.81 485.40
  Q 414.46 485.14 403.33 485.06
  Q 402.46 485.06 402.81 485.86
  C 407.93 497.55 413.66 509.22 421.64 519.38
  Q 422.17 520.05 422.63 519.34
  Q 429.00 509.53 437.10 500.84
  C 438.54 499.29 439.08 497.77 439.47 495.78
  C 441.25 486.60 453.18 483.30 457.92 492.21
  Q 460.95 497.92 456.74 503.74
  C 454.99 506.15 451.99 506.72 450.47 509.27
  Q 444.59 519.13 437.08 529.52
  Q 436.04 530.96 434.71 532.17
  A 1.07 1.06 -45.5 0 0 434.72 533.75
  Q 453.91 550.85 478.09 557.81
  Q 482.37 559.04 486.07 560.21
  A 0.32 0.32 0.0 0 0 486.48 559.92
  Q 486.62 557.38 486.61 554.84
  Q 486.56 537.20 486.41 520.64
  Q 486.38 517.20 487.41 514.79
  C 489.88 508.98 497.27 508.15 501.57 512.52
  Q 503.67 514.66 503.64 517.46
  Q 503.42 539.63 503.53 562.61
  Q 503.53 563.14 504.06 563.16
  Q 520.57 563.98 535.53 560.90
  C 544.11 559.14 552.20 556.26 560.26 553.38
  Q 561.77 552.84 563.40 551.93
  Q 563.92 551.64 564.25 552.13
  L 574.36 567.37
  A 1.05 1.05 0.0 0 1 573.94 568.90
  Q 530.15 589.61 483.54 580.92
  Q 453.47 575.31 430.20 557.57
  Q 395.12 530.83 381.70 487.36
  Q 380.13 482.29 379.26 477.43
  Q 379.17 476.88 378.60 476.88
  L 304.94 476.98
  A 0.55 0.55 0.0 0 0 304.43 477.32
  C 298.79 491.13 283.74 500.30 268.87 497.52
  C 257.21 495.34 249.20 487.89 244.66 477.31
  A 0.61 0.61 0.0 0 0 244.08 476.93
  C 224.91 477.05 206.01 477.25 187.25 476.66
  A 0.67 0.66 -85.8 0 0 186.57 477.25
  Q 184.11 499.72 184.33 521.97
  Q 184.33 522.05 184.41 522.05
  L 300.30 522.34
  Q 300.89 522.34 301.08 521.79
  C 305.17 510.09 319.56 502.49 331.82 504.21
  Q 347.71 506.45 354.72 520.73
  C 357.76 526.92 358.54 534.99 356.55 541.40
  Q 351.30 558.27 334.32 562.40
  C 318.53 566.25 304.62 556.34 299.21 541.40
  A 0.74 0.74 0.0 0 0 298.52 540.92
  L 185.24 540.83
  Q 184.86 540.83 184.88 541.22
  Q 186.07 565.56 191.08 588.90
  A 0.72 0.71 84.0 0 0 191.78 589.47
  L 231.25 589.51
  Q 231.79 589.51 231.98 588.99
  C 236.81 575.18 250.31 568.72 264.19 572.59
  C 275.92 575.86 284.82 589.82 282.30 602.35
  Q 279.23 617.66 264.12 622.92
  C 251.17 627.43 238.81 620.27 231.90 609.09
  A 0.78 0.76 72.7 0 0 231.21 608.72
  Q 213.45 609.24 195.51 608.76
  A 0.79 0.79 0.0 0 0 194.72 609.73
  Q 198.80 626.36 205.42 643.23
  Q 205.60 643.70 206.11 643.70
  L 302.53 643.87"
/>
<path stroke="#86969a" vector-effect="non-scaling-stroke" d="
  M 785.33 643.97
  L 713.26 643.97"
/>
<path stroke="#8ea4ab" vector-effect="non-scaling-stroke" d="
  M 713.26 643.97
  Q 667.50 643.60 621.75 643.93
  C 607.87 644.03 591.04 643.49 577.99 644.09
  Q 559.17 644.96 542.44 655.58
  Q 536.53 659.33 530.66 663.82
  Q 527.46 666.27 522.86 667.68
  Q 505.88 672.90 491.12 663.83
  Q 486.39 660.93 482.09 657.70
  C 474.89 652.29 466.63 648.51 457.94 646.19
  C 450.01 644.07 440.98 643.65 432.50 643.71
  Q 415.49 643.84 398.45 643.84"
/>
<path stroke="#86969a" vector-effect="non-scaling-stroke" d="
  M 398.45 643.84
  L 302.53 643.87"
/>
<path stroke="#164356" vector-effect="non-scaling-stroke" d="
  M 398.45 643.84
  Q 406.21 644.24 414.00 644.03
  Q 415.30 643.99 416.49 645.03
  Q 416.75 645.27 417.09 645.34
  Q 417.51 645.43 417.92 645.35
  Q 418.32 645.27 417.92 645.42
  Q 417.84 645.45 417.76 645.49
  Q 417.60 645.56 417.40 645.60
  Q 413.04 646.39 408.79 646.10
  Q 408.15 646.06 407.63 646.42
  Q 406.73 647.04 405.88 646.55
  Q 405.31 646.23 404.68 646.44
  Q 403.26 646.92 401.70 647.11
  Q 401.02 647.19 400.91 647.81
  Q 400.84 648.24 400.44 648.42
  L 396.26 650.31
  A 1.14 1.08 89.9 0 0 395.69 650.91
  L 394.86 653.06
  Q 394.67 653.55 394.21 653.81
  Q 393.31 654.31 392.82 655.30
  Q 392.61 655.71 392.28 656.03
  L 388.57 659.59
  Q 388.17 659.97 387.65 660.12
  C 387.39 660.19 387.05 660.35 386.87 660.56
  Q 386.74 660.71 386.89 660.84
  Q 387.45 661.32 386.73 661.47
  Q 383.55 662.14 380.27 661.82
  Q 380.11 661.81 380.09 661.97
  L 380.06 662.28
  Q 380.04 662.51 380.27 662.56
  L 383.98 663.38"
/>
<path stroke="#86969a" vector-effect="non-scaling-stroke" d="
  M 383.98 663.38
  L 247.46 663.46"
/>
<path stroke="#164356" vector-effect="non-scaling-stroke" d="
  M 713.26 643.97
  L 700.74 644.40
  Q 700.30 644.42 700.55 644.78
  Q 701.22 645.72 702.17 645.47
  Q 702.65 645.33 703.03 645.66
  Q 703.36 645.94 703.79 645.91
  Q 709.19 645.55 713.65 646.50
  Q 714.14 646.60 714.37 647.03
  Q 714.88 647.98 715.12 649.06
  Q 716.02 653.15 718.07 656.68
  Q 718.53 657.47 717.92 658.21
  Q 717.62 658.58 718.04 658.78
  Q 719.24 659.35 718.53 660.44
  Q 718.36 660.70 718.65 660.80
  Q 719.76 661.16 719.95 662.37
  Q 719.97 662.52 720.12 662.52
  Q 720.33 662.53 720.32 662.28
  A 0.04 0.03 -51.5 0 1 720.39 662.27
  Q 720.44 662.56 720.28 662.79
  Q 720.12 663.01 720.38 663.06
  L 722.72 663.50"
/>
<path stroke="#8ea4ab" vector-effect="non-scaling-stroke" d="
  M 722.72 663.50
  Q 653.73 663.50 584.76 663.19
  Q 562.77 663.10 543.89 677.01
  Q 537.15 681.97 533.74 683.89
  Q 518.38 692.53 498.75 688.15
  C 490.87 686.39 484.03 681.99 477.26 677.05
  Q 457.73 662.78 433.99 663.01
  Q 408.97 663.26 383.98 663.38"
/>
<path stroke="#86969a" vector-effect="non-scaling-stroke" d="
  M 792.30 663.48
  L 722.72 663.50"
/>
<path stroke="#7f8585" vector-effect="non-scaling-stroke" d="
  M 647.07 315.00
  C 649.48 320.48 645.64 325.72 641.66 329.02
  Q 636.83 333.03 631.86 338.01
  C 624.39 345.49 616.51 352.04 608.55 359.01
  A 1.06 1.06 0.0 0 0 608.44 360.49
  Q 611.57 364.22 614.71 367.77
  C 617.37 370.80 619.37 374.37 621.99 377.43
  A 1.11 1.11 0.0 0 0 623.63 377.49
  Q 628.15 372.89 633.06 368.31
  Q 659.50 343.61 686.24 319.62
  Q 693.85 312.79 700.98 306.09
  Q 717.15 290.86 733.90 275.35
  Q 734.41 274.88 733.89 274.43
  L 710.95 254.25
  Q 710.60 253.94 710.27 254.26
  Q 690.28 273.26 671.48 290.40
  Q 665.67 295.70 659.65 292.51
  Q 655.57 290.36 654.52 285.62
  Q 653.47 280.90 657.84 276.72
  Q 675.81 259.49 693.12 242.99
  A 0.65 0.65 0.0 0 0 693.05 241.99
  Q 671.96 226.96 648.74 215.57
  C 626.36 204.59 600.03 196.08 573.13 189.92
  Q 565.15 188.09 557.10 187.19
  A 0.93 0.92 4.7 0 0 556.07 188.06
  Q 555.66 196.42 555.89 204.11
  A 1.64 1.63 9.2 0 0 556.97 205.60
  C 574.43 211.77 582.44 234.48 570.64 249.46
  C 567.54 253.39 562.39 258.34 557.27 259.78
  Q 556.12 260.10 556.00 261.29
  Q 555.67 264.63 555.66 267.74
  Q 555.50 295.16 555.46 325.63
  A 1.65 1.65 0.0 0 0 556.64 327.21
  Q 561.37 328.59 565.59 330.75
  A 1.27 1.27 0.0 0 0 567.32 330.16
  Q 575.39 313.04 585.43 297.28
  Q 586.21 296.06 586.26 294.80
  C 586.40 291.27 587.57 288.20 590.29 286.00
  C 594.69 282.43 601.03 283.43 604.58 287.51
  C 610.54 294.37 607.75 302.67 600.51 307.09
  Q 599.56 307.67 599.11 308.72
  Q 594.50 319.33 587.92 330.90
  Q 585.96 334.33 584.25 338.11
  A 1.31 1.31 0.0 0 0 584.77 339.78
  Q 589.67 342.68 593.41 346.33
  Q 594.19 347.09 594.94 346.29
  C 595.63 345.56 596.17 344.67 596.93 344.00
  Q 610.29 332.35 622.64 320.75
  C 623.72 319.74 625.35 319.26 625.70 317.66
  C 628.25 306.07 642.24 304.04 647.07 315.00"
/>
<path stroke="#7f8585" vector-effect="non-scaling-stroke" d="
  M 344.05 305.41
  Q 349.02 314.29 346.36 324.42
  Q 345.77 326.64 344.58 328.53
  A 1.28 1.28 0.0 0 0 344.78 330.14
  L 398.81 380.60
  A 0.63 0.62 -52.9 0 0 399.77 380.46
  Q 406.56 368.89 415.69 359.33
  Q 417.80 357.11 420.42 355.32
  A 0.61 0.61 0.0 0 0 420.59 354.48
  L 392.69 312.47
  Q 392.30 311.88 391.60 311.81
  C 377.14 310.50 365.14 298.43 366.48 283.48
  Q 366.53 282.89 366.06 282.52
  C 365.32 281.94 364.53 281.49 363.84 280.84
  Q 346.62 264.67 330.05 249.89
  Q 327.01 247.18 324.04 243.96
  Q 323.71 243.60 323.34 243.91
  L 285.71 274.47
  Q 283.97 275.88 285.61 277.42
  Q 293.31 284.61 300.86 291.34
  Q 303.12 293.35 305.77 294.95
  Q 306.25 295.24 306.72 294.96
  C 320.17 287.00 336.40 291.73 344.05 305.41"
/>
<path stroke="#7f8585" vector-effect="non-scaling-stroke" d="
  M 756.07 443.31
  C 770.49 437.93 785.60 443.73 792.35 457.81
  A 0.79 0.78 -12.4 0 0 793.04 458.25
  Q 811.88 458.39 830.50 458.24
  Q 830.97 458.24 831.37 458.12
  Q 831.95 457.96 831.86 457.36
  Q 825.34 414.26 808.81 378.00
  Q 798.62 355.65 782.91 331.43
  C 773.06 316.24 760.94 302.34 748.50 289.17
  Q 748.33 288.99 748.15 289.16
  C 735.57 300.86 723.25 311.94 711.02 323.41
  Q 676.56 355.74 640.67 386.91
  Q 636.24 390.76 631.42 394.05
  Q 631.13 394.25 631.27 394.58
  L 637.11 407.97
  A 1.08 1.07 -21.5 0 0 638.45 408.55
  L 666.38 398.56
  A 2.10 2.10 0.0 0 0 667.74 396.98
  C 670.01 385.05 683.07 377.08 694.76 378.76
  Q 708.11 380.68 713.30 394.08
  C 717.13 403.99 713.15 415.33 704.26 420.98
  Q 688.71 430.86 674.29 418.66
  Q 673.35 417.87 672.45 417.08
  Q 672.04 416.71 671.53 416.90
  Q 661.26 420.67 650.59 424.41
  Q 646.58 425.82 642.78 426.77
  A 1.25 1.25 0.0 0 0 641.86 428.27
  Q 645.14 442.74 644.04 457.56
  Q 643.99 458.27 644.70 458.26
  L 740.06 458.22
  A 0.85 0.85 0.0 0 0 740.85 457.68
  C 743.45 451.05 749.56 445.74 756.07 443.31"
/>
<path stroke="#7f8585" vector-effect="non-scaling-stroke" d="
  M 195.82 425.12
  Q 190.97 443.07 189.11 457.76
  Q 189.04 458.35 189.63 458.34
  Q 216.63 458.10 244.25 458.42
  A 0.66 0.65 7.1 0 0 244.90 457.92
  Q 247.15 448.37 255.01 441.49
  C 261.68 435.65 269.68 433.74 278.30 434.51
  C 291.61 435.69 301.77 444.84 304.96 457.66
  Q 305.11 458.25 305.71 458.25
  L 376.98 458.27
  Q 377.52 458.27 377.50 457.73
  Q 377.02 445.09 378.96 432.83
  A 0.57 0.56 -76.5 0 0 378.59 432.21
  Q 360.11 425.92 341.21 419.83
  Q 322.01 413.64 301.91 407.26
  Q 301.21 407.04 300.66 407.53
  C 287.50 419.29 268.85 415.81 260.35 400.56
  C 254.03 389.23 258.15 373.78 268.87 367.00
  Q 277.58 361.49 288.15 363.38
  C 300.16 365.53 309.97 376.35 309.97 389.02
  A 0.84 0.83 9.2 0 0 310.55 389.81
  L 382.59 412.71
  A 0.74 0.74 0.0 0 0 383.54 412.13
  C 384.36 407.52 387.17 402.43 389.22 398.11
  A 0.63 0.62 -56.2 0 0 389.08 397.38
  Q 362.60 373.70 337.87 350.60
  Q 334.15 347.13 330.29 343.19
  A 1.21 1.20 -32.5 0 0 329.00 342.91
  C 318.06 347.08 306.44 344.08 299.07 335.35
  Q 290.26 324.93 293.79 311.89
  A 1.24 1.24 0.0 0 0 293.20 310.49
  Q 291.89 309.78 290.85 308.82
  Q 281.14 299.84 271.61 290.80
  A 1.21 1.21 0.0 0 0 269.99 290.76
  Q 268.68 291.88 267.58 293.20
  Q 256.76 306.21 246.74 319.80
  Q 237.48 332.35 227.72 348.96
  Q 206.79 384.57 195.82 425.12"
/>
<path stroke="#7f8585" vector-effect="non-scaling-stroke" d="
  M 287.4852 468.6643
  A 13.28 12.82 12.5 0 0 277.2948 453.2739
  A 13.28 12.82 12.5 0 0 261.5548 462.9157
  A 13.28 12.82 12.5 0 0 271.7452 478.3061
  A 13.28 12.82 12.5 0 0 287.4852 468.6643"
/>
<path stroke="#7f8585" vector-effect="non-scaling-stroke" d="
  M 419.71 733.65
  Q 408.34 729.33 397.26 726.50
  C 367.59 718.93 336.92 715.72 305.98 715.62
  Q 276.11 715.51 245.73 715.28
  A 0.82 0.81 -20.7 0 0 245.11 716.64
  L 269.54 743.75
  Q 269.91 744.16 270.46 744.11
  Q 288.33 742.67 302.43 742.18
  Q 352.99 740.42 399.37 747.69
  Q 430.18 752.52 461.29 760.82
  Q 468.03 762.62 474.98 765.71
  A 0.62 0.62 0.0 0 0 475.76 765.46
  Q 476.00 765.05 475.62 764.76
  Q 464.10 756.03 450.96 748.08
  Q 439.57 741.20 419.71 733.65"
/>
<path stroke="#7f8585" vector-effect="non-scaling-stroke" d="
  M 568.11 758.32
  Q 620.53 744.35 676.28 742.30
  Q 713.23 740.94 750.98 744.01
  Q 751.51 744.06 751.85 743.65
  Q 762.01 731.43 774.10 718.48
  Q 774.90 717.63 775.42 716.51
  A 0.76 0.76 0.0 0 0 774.72 715.42
  C 750.43 715.76 726.33 715.22 699.58 715.90
  Q 660.17 716.91 620.80 726.81
  C 603.70 731.11 586.28 738.22 571.74 746.49
  Q 560.06 753.14 548.46 761.21
  Q 546.23 762.76 544.19 764.39
  Q 544.00 764.54 543.96 764.78
  Q 543.91 764.99 544.01 765.17
  Q 544.23 765.58 544.67 765.43
  Q 559.99 760.48 568.11 758.32"
/>
<path stroke="#7f8585" vector-effect="non-scaling-stroke" d="
  M 452.27 811.16
  C 455.48 817.91 459.29 824.16 464.53 829.57
  Q 481.03 846.60 505.97 847.91
  C 518.72 848.58 532.86 845.74 543.63 838.91
  Q 559.86 828.61 567.77 811.20
  Q 568.02 810.67 568.60 810.67
  L 667.47 810.44
  A 3.74 3.74 0.0 0 0 669.32 809.95
  Q 689.02 798.83 706.40 785.25
  Q 707.93 784.05 705.98 784.05
  L 544.28 784.02
  A 0.48 0.48 0.0 0 0 543.80 784.50
  C 543.81 789.53 543.67 795.08 542.37 799.95
  C 537.80 817.14 519.87 828.22 502.22 823.41
  C 484.60 818.61 475.30 802.48 476.86 784.31
  Q 476.89 784.02 476.60 784.02
  L 314.43 784.00
  Q 314.08 784.00 314.16 784.33
  Q 314.28 784.92 314.77 785.29
  Q 331.78 798.25 353.03 810.23
  A 0.90 0.88 -30.2 0 0 353.46 810.34
  L 451.40 810.61
  A 0.96 0.96 0.0 0 1 452.27 811.16"
/>
<path stroke="#7f8585" vector-effect="non-scaling-stroke" d="
  M 475.92 531.45
  A 9.37 9.37 0.0 0 0 466.55 522.08
  A 9.37 9.37 0.0 0 0 457.18 531.45
  A 9.37 9.37 0.0 0 0 466.55 540.82
  A 9.37 9.37 0.0 0 0 475.92 531.45"
/>
<path stroke="#7f8585" vector-effect="non-scaling-stroke" d="
  M 735.1895 589.4659
  A 24.02 23.57 -6.2 0 0 708.7645 568.6279
  A 24.02 23.57 -6.2 0 0 687.4305 594.6541
  A 24.02 23.57 -6.2 0 0 713.8555 615.4921
  A 24.02 23.57 -6.2 0 0 735.1895 589.4659"
/>
<path stroke="#8ea4ab" vector-effect="non-scaling-stroke" d="
  M 309.92 613.30
  Q 313.91 612.87 318.25 612.88
  Q 355.77 612.99 393.29 613.02"
/>
<path stroke="#96b7c2" vector-effect="non-scaling-stroke" d="
  M 393.29 613.02
  Q 425.06 613.37 441.74 613.03
  Q 458.82 612.69 472.65 620.98
  C 478.34 624.38 483.41 628.77 489.44 631.71
  Q 509.56 641.51 531.05 631.94
  Q 534.02 630.61 537.23 628.37
  C 542.07 624.99 546.80 621.27 551.99 618.76
  C 561.70 614.08 573.08 612.98 583.73 613.00
  Q 620.21 613.08 652.36 613.03
  C 656.11 613.02 659.70 613.47 663.41 612.86
  C 675.30 610.89 674.66 595.25 664.08 592.40
  Q 661.11 591.59 656.65 592.64
  Q 652.65 593.58 646.82 593.56
  Q 617.34 593.43 582.45 593.56
  Q 574.72 593.59 567.22 594.33
  C 555.97 595.44 544.04 600.12 534.75 607.11
  C 529.20 611.28 522.51 614.85 515.71 615.82
  Q 501.64 617.85 490.52 609.81
  Q 483.77 604.93 476.51 601.05
  Q 464.10 594.41 449.75 593.83
  Q 432.44 593.13 395.04 593.52"
/>
<path stroke="#8ea4ab" vector-effect="non-scaling-stroke" d="
  M 395.04 593.52
  L 313.34 593.18"
/>
<path stroke="#86969a" vector-effect="non-scaling-stroke" d="
  M 313.34 593.18
  Q 307.14 590.60 302.10 593.82
  C 297.10 597.02 295.51 603.05 298.48 608.16
  Q 301.66 613.64 309.92 613.30"
/>
<path stroke="#164356" vector-effect="non-scaling-stroke" d="
  M 313.34 593.18
  Q 313.24 593.39 313.07 593.70
  Q 312.64 594.47 313.49 594.37
  Q 313.65 594.35 313.73 594.66
  Q 313.79 594.90 313.71 595.14
  Q 313.12 596.80 312.84 598.56
  Q 312.80 598.81 312.55 598.78
  Q 312.49 598.77 312.46 598.71
  Q 312.21 598.13 312.04 598.74
  C 311.56 600.48 311.11 601.82 311.17 603.78
  C 311.21 605.42 310.56 606.94 310.68 608.57
  Q 310.73 609.32 310.66 610.17
  Q 310.62 610.78 310.11 611.12
  Q 309.72 611.38 309.94 611.86
  Q 310.10 612.21 309.99 612.58
  Q 309.87 612.96 309.92 613.30"
/>
<path stroke="#27647f" vector-effect="non-scaling-stroke" d="
  M 393.29 613.02
  L 396.60 610.96
  Q 397.19 610.59 396.80 610.01
  Q 396.45 609.50 396.83 608.99
  Q 397.18 608.54 397.16 607.96
  Q 397.13 606.67 397.66 605.64
  A 15.28 10.98 75.5 0 0 398.70 602.96
  Q 398.99 601.89 399.10 600.85
  A 1.96 1.91 66.1 0 1 399.45 599.91
  Q 400.28 598.73 400.11 597.33
  A 0.98 0.98 0.0 0 1 400.42 596.49
  Q 401.13 595.81 400.64 594.83
  Q 400.32 594.20 399.62 594.37
  Q 398.69 594.61 397.99 594.01
  Q 397.60 593.69 397.08 593.65
  L 395.04 593.52"
/>
<path stroke="#7f8585" vector-effect="non-scaling-stroke" d="
  M 641.88 246.39
  A 17.69 17.69 0.0 0 0 624.19 228.70
  A 17.69 17.69 0.0 0 0 606.50 246.39
  A 17.69 17.69 0.0 0 0 624.19 264.08
  A 17.69 17.69 0.0 0 0 641.88 246.39"
/>
<path stroke="#7f8585" vector-effect="non-scaling-stroke" d="
  M 757.02 348.66
  A 17.21 17.21 0.0 0 0 739.81 331.45
  A 17.21 17.21 0.0 0 0 722.60 348.66
  A 17.21 17.21 0.0 0 0 739.81 365.87
  A 17.21 17.21 0.0 0 0 757.02 348.66"
/>
<path stroke="#7f8585" vector-effect="non-scaling-stroke" d="
  M 784.26 403.08
  A 18.24 18.24 0.0 0 0 766.02 384.84
  A 18.24 18.24 0.0 0 0 747.78 403.08
  A 18.24 18.24 0.0 0 0 766.02 421.32
  A 18.24 18.24 0.0 0 0 784.26 403.08"
/>
</g>
<path fill="#fdf7ee" d="
  M 0.00 0.00
  L 1024.00 0.00
  L 1024.00 1024.00
  L 0.00 1024.00
  L 0.00 0.00
  Z
  M 771.91 787.16
  Q 775.35 784.19 778.52 780.85
  C 805.06 752.87 827.20 721.72 844.18 686.82
  Q 852.62 669.48 859.45 651.43
  Q 862.49 643.39 865.32 633.94
  Q 869.28 620.71 870.36 616.17
  C 874.47 598.97 877.74 581.83 879.63 564.81
  Q 885.43 512.65 878.09 461.25
  Q 869.83 403.42 844.04 350.69
  Q 839.58 341.56 834.70 332.96
  C 804.21 279.21 760.49 232.28 708.50 199.18
  Q 681.84 182.21 654.01 170.12
  Q 631.60 160.39 601.00 152.14
  Q 549.93 138.37 495.98 140.39
  Q 484.60 140.82 475.93 141.84
  Q 449.04 145.02 431.03 149.45
  Q 412.67 153.96 388.21 162.24
  Q 375.20 166.65 362.49 172.43
  Q 303.09 199.48 256.41 243.38
  Q 234.16 264.29 215.95 288.83
  C 195.92 315.82 180.00 342.58 167.68 372.25
  Q 160.18 390.33 153.41 413.33
  Q 145.70 439.54 141.99 472.29
  Q 138.53 502.80 139.31 532.35
  Q 140.44 574.79 150.82 616.01
  Q 157.66 643.16 168.04 666.66
  Q 173.93 680.00 180.23 692.81
  Q 189.75 712.16 205.60 735.05
  Q 222.03 758.76 238.93 776.25
  Q 245.71 783.26 253.05 790.41
  Q 280.86 817.53 313.76 837.59
  Q 333.58 849.67 354.08 859.46
  Q 378.90 871.30 407.17 879.81
  C 421.69 884.18 437.93 887.72 452.32 890.29
  Q 503.25 899.41 555.40 892.20
  Q 594.35 886.82 632.64 873.95
  C 638.89 871.85 645.24 869.05 651.51 866.65
  Q 658.12 864.13 665.37 860.64
  Q 696.39 845.71 717.46 831.59
  Q 743.42 814.20 771.09 788.18
  Q 771.33 787.96 771.48 787.69
  Q 771.65 787.39 771.91 787.16
  Z"
/>
<path fill="#00131c" d="
  M 771.48 787.69
  Q 771.33 787.96 771.09 788.18
  Q 743.42 814.20 717.46 831.59
  Q 696.39 845.71 665.37 860.64
  Q 658.12 864.13 651.51 866.65
  C 645.24 869.05 638.89 871.85 632.64 873.95
  Q 594.35 886.82 555.40 892.20
  Q 503.25 899.41 452.32 890.29
  C 437.93 887.72 421.69 884.18 407.17 879.81
  Q 378.90 871.30 354.08 859.46
  Q 333.58 849.67 313.76 837.59
  Q 280.86 817.53 253.05 790.41
  Q 245.71 783.26 238.93 776.25
  Q 222.03 758.76 205.60 735.05
  Q 189.75 712.16 180.23 692.81
  Q 173.93 680.00 168.04 666.66
  Q 157.66 643.16 150.82 616.01
  Q 140.44 574.79 139.31 532.35
  Q 138.53 502.80 141.99 472.29
  Q 145.70 439.54 153.41 413.33
  Q 160.18 390.33 167.68 372.25
  C 180.00 342.58 195.92 315.82 215.95 288.83
  Q 234.16 264.29 256.41 243.38
  Q 303.09 199.48 362.49 172.43
  Q 375.20 166.65 388.21 162.24
  Q 412.67 153.96 431.03 149.45
  Q 449.04 145.02 475.93 141.84
  Q 484.60 140.82 495.98 140.39
  Q 549.93 138.37 601.00 152.14
  Q 631.60 160.39 654.01 170.12
  Q 681.84 182.21 708.50 199.18
  C 760.49 232.28 804.21 279.21 834.70 332.96
  Q 839.58 341.56 844.04 350.69
  Q 869.83 403.42 878.09 461.25
  Q 885.43 512.65 879.63 564.81
  C 877.74 581.83 874.47 598.97 870.36 616.17
  Q 869.28 620.71 865.32 633.94
  Q 862.49 643.39 859.45 651.43
  Q 852.62 669.48 844.18 686.82
  C 827.20 721.72 805.06 752.87 778.52 780.85
  Q 775.35 784.19 771.91 787.16
  Q 771.65 787.39 771.48 787.69
  Z
  M 302.53 643.87
  L 305.79 644.05
  Q 305.94 644.06 305.80 644.11
  C 304.75 644.46 303.84 644.82 302.70 644.77
  Q 297.64 644.56 291.92 644.89
  C 289.41 645.03 287.23 644.07 284.65 644.46
  Q 284.50 644.49 284.45 644.63
  Q 284.37 644.90 284.08 644.90
  Q 279.48 644.83 275.02 645.12
  C 272.96 645.25 271.12 644.68 269.03 645.02
  Q 266.86 645.36 264.47 645.40
  Q 261.89 645.43 259.33 646.38
  Q 258.95 646.52 258.81 646.90
  Q 257.83 649.73 256.02 652.63
  Q 255.15 654.03 254.82 655.36
  Q 254.40 657.04 253.09 658.31
  Q 252.69 658.69 252.54 659.22
  Q 252.01 661.11 250.47 662.32
  Q 250.05 662.65 250.55 662.46
  Q 250.70 662.40 250.77 662.58
  Q 250.88 662.84 250.61 662.89
  L 247.46 663.46
  L 215.55 663.39
  Q 214.91 663.39 215.17 663.98
  Q 222.50 680.58 232.14 695.40
  Q 232.38 695.77 232.82 695.77
  L 270.45 695.96
  Q 271.30 695.96 270.70 695.35
  L 255.32 679.51
  A 0.41 0.41 0.0 0 1 255.60 678.81
  Q 261.03 678.59 266.22 678.57
  Q 308.55 678.33 350.71 678.66
  C 384.71 678.93 420.00 685.72 450.21 700.79
  C 475.11 713.22 495.65 732.64 507.86 757.88
  C 508.96 760.16 509.60 762.67 510.61 764.99
  Q 511.00 765.88 511.29 764.95
  Q 517.19 746.07 530.63 731.10
  C 543.10 717.21 557.58 706.29 574.90 698.33
  Q 587.25 692.66 595.56 690.37
  C 605.10 687.75 614.78 684.96 623.92 683.29
  Q 648.86 678.75 675.00 678.58
  Q 707.82 678.37 746.51 678.72
  Q 755.38 678.80 763.87 678.54
  A 0.84 0.83 60.0 0 1 764.35 678.67
  Q 764.96 679.03 764.77 679.36
  Q 764.70 679.49 764.60 679.61
  Q 757.37 688.09 749.20 695.21
  A 0.24 0.23 40.9 0 0 749.23 695.58
  Q 749.86 696.02 750.64 696.00
  Q 770.72 695.71 788.85 695.87
  Q 789.34 695.88 789.61 695.47
  Q 791.58 692.54 793.35 689.07
  Q 798.60 678.82 805.54 664.93
  Q 806.16 663.68 804.77 663.66
  L 792.30 663.48
  Q 791.69 662.69 789.55 663.04
  A 1.09 1.09 0.0 0 1 788.28 662.04
  Q 788.23 661.37 787.62 661.10
  A 0.81 0.81 0.0 0 1 787.16 660.20
  Q 787.45 658.75 787.61 657.15
  Q 787.74 655.83 787.03 654.15
  Q 786.28 652.38 786.55 650.22
  Q 786.61 649.74 786.39 649.31
  Q 786.01 648.58 786.17 647.79
  C 786.35 646.85 785.87 646.06 784.96 645.75
  Q 784.73 645.67 784.97 645.61
  Q 785.02 645.59 785.07 645.56
  Q 785.61 645.19 784.95 645.19
  Q 784.45 645.20 784.01 644.90
  Q 783.57 644.60 783.03 644.64
  Q 781.21 644.76 779.66 644.41
  Q 778.93 644.25 779.67 644.35
  Q 782.45 644.70 785.33 643.97
  L 814.89 643.97
  Q 815.40 643.97 815.60 643.50
  Q 816.32 641.77 816.93 640.00
  C 822.27 624.56 826.02 608.40 829.58 592.25
  Q 829.69 591.73 829.16 591.74
  L 808.99 591.76
  Q 808.40 591.76 808.36 592.35
  Q 807.63 603.81 798.80 610.18
  Q 787.73 618.16 776.60 614.10
  C 766.98 610.59 760.67 602.71 760.42 592.24
  C 760.24 584.24 764.82 575.70 771.38 571.80
  Q 779.75 566.81 789.47 568.60
  C 792.85 569.22 795.43 571.19 799.01 571.21
  Q 815.92 571.35 831.90 571.34
  A 1.11 1.10 3.9 0 0 833.00 570.39
  Q 835.09 555.43 836.35 541.17
  A 0.24 0.23 3.2 0 0 836.11 540.91
  L 663.32 540.91
  Q 662.15 540.91 661.68 541.99
  Q 655.53 556.48 640.36 560.35
  C 631.73 562.56 621.71 560.24 615.16 554.78
  Q 600.95 542.94 605.09 524.59
  C 607.50 513.88 614.98 506.37 625.52 503.11
  C 640.93 498.35 656.34 506.40 662.55 521.69
  Q 662.80 522.30 663.47 522.30
  L 836.71 522.18
  Q 837.18 522.18 837.19 521.70
  Q 837.58 499.86 834.61 477.23
  Q 834.57 476.91 834.24 476.91
  L 794.16 476.96
  A 0.60 0.58 -81.2 0 0 793.60 477.38
  Q 789.01 492.78 773.67 497.57
  Q 764.84 500.32 757.18 497.44
  Q 742.88 492.07 738.12 477.32
  Q 737.95 476.80 737.41 476.80
  L 622.95 477.10
  Q 622.39 477.10 622.42 476.53
  C 622.83 469.28 623.60 462.22 623.53 454.92
  C 623.28 425.77 613.15 398.17 593.57 376.56
  Q 570.92 351.57 535.95 343.07
  Q 528.58 341.28 521.13 340.58
  A 0.62 0.62 0.0 0 1 520.57 339.97
  L 520.51 321.00
  A 0.68 0.68 0.0 0 1 521.26 320.32
  L 536.26 321.95
  A 0.45 0.45 0.0 0 0 536.76 321.50
  L 536.75 260.02
  Q 536.75 259.55 536.31 259.36
  C 526.18 254.99 518.16 244.97 518.31 233.45
  Q 518.56 213.56 536.44 205.80
  A 0.84 0.84 0.0 0 0 536.94 205.03
  L 536.83 184.38
  A 0.53 0.52 -89.4 0 0 536.33 183.86
  Q 515.10 182.96 496.94 183.30
  C 472.36 183.77 444.68 189.11 420.28 196.52
  Q 395.17 204.13 365.91 218.70
  Q 353.37 224.95 342.00 232.33
  A 0.80 0.80 0.0 0 0 341.89 233.59
  L 375.47 265.02
  A 0.71 0.71 0.0 0 0 376.42 265.05
  C 390.27 253.47 410.49 258.09 417.97 275.00
  C 422.82 285.97 419.50 296.38 411.21 304.56
  A 1.28 1.28 0.0 0 0 411.05 306.17
  L 435.46 342.30
  A 0.70 0.70 0.0 0 0 436.45 342.48
  Q 450.23 332.86 466.22 327.31
  Q 466.73 327.14 466.73 326.60
  L 466.76 268.71
  A 0.81 0.80 -88.5 0 0 466.00 267.90
  C 463.03 267.76 459.98 266.62 457.59 264.94
  C 445.44 256.42 442.65 240.96 450.85 228.75
  C 457.60 218.70 470.20 215.36 481.43 219.07
  Q 490.24 221.99 495.26 230.76
  C 502.31 243.11 498.03 257.20 486.63 265.29
  A 1.38 1.37 72.6 0 0 486.04 266.42
  L 485.86 320.77
  Q 485.85 321.93 487.02 321.80
  L 502.97 319.93
  A 0.45 0.44 81.9 0 1 503.46 320.30
  Q 503.64 321.45 503.63 322.73
  Q 503.46 341.88 503.49 358.93
  C 503.50 362.80 504.82 367.18 503.42 370.74
  C 500.28 378.73 490.12 378.67 486.97 370.72
  Q 486.06 368.44 486.23 364.68
  Q 486.77 353.00 486.41 342.86
  Q 486.41 342.59 486.14 342.66
  Q 476.30 345.31 466.69 348.96
  C 461.59 350.90 456.75 353.78 451.74 355.90
  A 0.92 0.92 0.0 0 0 451.46 357.41
  L 460.96 366.55
  A 0.92 0.89 -22.3 0 0 461.59 366.80
  Q 462.54 366.80 463.49 366.50
  C 466.80 365.48 470.79 367.76 472.67 370.25
  C 477.38 376.50 473.30 384.72 466.09 386.38
  Q 459.60 387.88 453.83 383.30
  C 447.77 378.49 441.85 374.13 436.99 367.89
  Q 436.59 367.38 436.12 367.82
  C 429.29 374.15 422.47 381.18 417.95 389.01
  Q 417.59 389.64 418.32 389.68
  Q 428.82 390.24 439.73 389.49
  C 451.16 388.70 456.26 401.23 445.43 407.13
  Q 443.86 407.98 441.86 407.76
  C 439.14 407.44 436.49 407.00 433.75 407.02
  Q 421.93 407.15 409.26 406.75
  A 0.39 0.39 0.0 0 0 408.91 406.94
  Q 406.76 410.45 405.05 414.04
  A 0.05 0.05 0.0 0 0 405.09 414.11
  Q 415.57 415.21 425.20 414.55
  C 430.29 414.20 435.01 414.95 436.97 420.10
  C 439.38 426.45 434.10 431.98 427.89 431.80
  Q 414.94 431.42 401.20 431.50
  Q 400.40 431.51 400.27 432.29
  L 399.07 439.75
  Q 398.93 440.65 399.84 440.64
  Q 424.68 440.46 446.73 440.51
  C 449.08 440.51 451.43 439.88 453.74 440.02
  C 460.91 440.45 465.73 448.80 460.43 454.64
  Q 457.08 458.33 452.64 458.23
  Q 427.63 457.61 398.87 457.77
  Q 398.50 457.77 398.56 458.15
  Q 399.41 463.15 399.35 467.12
  A 0.44 0.44 0.0 0 0 399.79 467.57
  Q 409.64 467.66 418.81 467.72
  Q 420.91 467.74 423.20 467.43
  Q 430.41 466.46 433.82 471.88
  C 437.46 477.68 432.27 485.54 425.81 485.40
  Q 414.46 485.14 403.33 485.06
  Q 402.46 485.06 402.81 485.86
  C 407.93 497.55 413.66 509.22 421.64 519.38
  Q 422.17 520.05 422.63 519.34
  Q 429.00 509.53 437.10 500.84
  C 438.54 499.29 439.08 497.77 439.47 495.78
  C 441.25 486.60 453.18 483.30 457.92 492.21
  Q 460.95 497.92 456.74 503.74
  C 454.99 506.15 451.99 506.72 450.47 509.27
  Q 444.59 519.13 437.08 529.52
  Q 436.04 530.96 434.71 532.17
  A 1.07 1.06 -45.5 0 0 434.72 533.75
  Q 453.91 550.85 478.09 557.81
  Q 482.37 559.04 486.07 560.21
  A 0.32 0.32 0.0 0 0 486.48 559.92
  Q 486.62 557.38 486.61 554.84
  Q 486.56 537.20 486.41 520.64
  Q 486.38 517.20 487.41 514.79
  C 489.88 508.98 497.27 508.15 501.57 512.52
  Q 503.67 514.66 503.64 517.46
  Q 503.42 539.63 503.53 562.61
  Q 503.53 563.14 504.06 563.16
  Q 520.57 563.98 535.53 560.90
  C 544.11 559.14 552.20 556.26 560.26 553.38
  Q 561.77 552.84 563.40 551.93
  Q 563.92 551.64 564.25 552.13
  L 574.36 567.37
  A 1.05 1.05 0.0 0 1 573.94 568.90
  Q 530.15 589.61 483.54 580.92
  Q 453.47 575.31 430.20 557.57
  Q 395.12 530.83 381.70 487.36
  Q 380.13 482.29 379.26 477.43
  Q 379.17 476.88 378.60 476.88
  L 304.94 476.98
  A 0.55 0.55 0.0 0 0 304.43 477.32
  C 298.79 491.13 283.74 500.30 268.87 497.52
  C 257.21 495.34 249.20 487.89 244.66 477.31
  A 0.61 0.61 0.0 0 0 244.08 476.93
  C 224.91 477.05 206.01 477.25 187.25 476.66
  A 0.67 0.66 -85.8 0 0 186.57 477.25
  Q 184.11 499.72 184.33 521.97
  Q 184.33 522.05 184.41 522.05
  L 300.30 522.34
  Q 300.89 522.34 301.08 521.79
  C 305.17 510.09 319.56 502.49 331.82 504.21
  Q 347.71 506.45 354.72 520.73
  C 357.76 526.92 358.54 534.99 356.55 541.40
  Q 351.30 558.27 334.32 562.40
  C 318.53 566.25 304.62 556.34 299.21 541.40
  A 0.74 0.74 0.0 0 0 298.52 540.92
  L 185.24 540.83
  Q 184.86 540.83 184.88 541.22
  Q 186.07 565.56 191.08 588.90
  A 0.72 0.71 84.0 0 0 191.78 589.47
  L 231.25 589.51
  Q 231.79 589.51 231.98 588.99
  C 236.81 575.18 250.31 568.72 264.19 572.59
  C 275.92 575.86 284.82 589.82 282.30 602.35
  Q 279.23 617.66 264.12 622.92
  C 251.17 627.43 238.81 620.27 231.90 609.09
  A 0.78 0.76 72.7 0 0 231.21 608.72
  Q 213.45 609.24 195.51 608.76
  A 0.79 0.79 0.0 0 0 194.72 609.73
  Q 198.80 626.36 205.42 643.23
  Q 205.60 643.70 206.11 643.70
  L 302.53 643.87
  Z
  M 647.07 315.00
  C 649.48 320.48 645.64 325.72 641.66 329.02
  Q 636.83 333.03 631.86 338.01
  C 624.39 345.49 616.51 352.04 608.55 359.01
  A 1.06 1.06 0.0 0 0 608.44 360.49
  Q 611.57 364.22 614.71 367.77
  C 617.37 370.80 619.37 374.37 621.99 377.43
  A 1.11 1.11 0.0 0 0 623.63 377.49
  Q 628.15 372.89 633.06 368.31
  Q 659.50 343.61 686.24 319.62
  Q 693.85 312.79 700.98 306.09
  Q 717.15 290.86 733.90 275.35
  Q 734.41 274.88 733.89 274.43
  L 710.95 254.25
  Q 710.60 253.94 710.27 254.26
  Q 690.28 273.26 671.48 290.40
  Q 665.67 295.70 659.65 292.51
  Q 655.57 290.36 654.52 285.62
  Q 653.47 280.90 657.84 276.72
  Q 675.81 259.49 693.12 242.99
  A 0.65 0.65 0.0 0 0 693.05 241.99
  Q 671.96 226.96 648.74 215.57
  C 626.36 204.59 600.03 196.08 573.13 189.92
  Q 565.15 188.09 557.10 187.19
  A 0.93 0.92 4.7 0 0 556.07 188.06
  Q 555.66 196.42 555.89 204.11
  A 1.64 1.63 9.2 0 0 556.97 205.60
  C 574.43 211.77 582.44 234.48 570.64 249.46
  C 567.54 253.39 562.39 258.34 557.27 259.78
  Q 556.12 260.10 556.00 261.29
  Q 555.67 264.63 555.66 267.74
  Q 555.50 295.16 555.46 325.63
  A 1.65 1.65 0.0 0 0 556.64 327.21
  Q 561.37 328.59 565.59 330.75
  A 1.27 1.27 0.0 0 0 567.32 330.16
  Q 575.39 313.04 585.43 297.28
  Q 586.21 296.06 586.26 294.80
  C 586.40 291.27 587.57 288.20 590.29 286.00
  C 594.69 282.43 601.03 283.43 604.58 287.51
  C 610.54 294.37 607.75 302.67 600.51 307.09
  Q 599.56 307.67 599.11 308.72
  Q 594.50 319.33 587.92 330.90
  Q 585.96 334.33 584.25 338.11
  A 1.31 1.31 0.0 0 0 584.77 339.78
  Q 589.67 342.68 593.41 346.33
  Q 594.19 347.09 594.94 346.29
  C 595.63 345.56 596.17 344.67 596.93 344.00
  Q 610.29 332.35 622.64 320.75
  C 623.72 319.74 625.35 319.26 625.70 317.66
  C 628.25 306.07 642.24 304.04 647.07 315.00
  Z
  M 344.05 305.41
  Q 349.02 314.29 346.36 324.42
  Q 345.77 326.64 344.58 328.53
  A 1.28 1.28 0.0 0 0 344.78 330.14
  L 398.81 380.60
  A 0.63 0.62 -52.9 0 0 399.77 380.46
  Q 406.56 368.89 415.69 359.33
  Q 417.80 357.11 420.42 355.32
  A 0.61 0.61 0.0 0 0 420.59 354.48
  L 392.69 312.47
  Q 392.30 311.88 391.60 311.81
  C 377.14 310.50 365.14 298.43 366.48 283.48
  Q 366.53 282.89 366.06 282.52
  C 365.32 281.94 364.53 281.49 363.84 280.84
  Q 346.62 264.67 330.05 249.89
  Q 327.01 247.18 324.04 243.96
  Q 323.71 243.60 323.34 243.91
  L 285.71 274.47
  Q 283.97 275.88 285.61 277.42
  Q 293.31 284.61 300.86 291.34
  Q 303.12 293.35 305.77 294.95
  Q 306.25 295.24 306.72 294.96
  C 320.17 287.00 336.40 291.73 344.05 305.41
  Z
  M 756.07 443.31
  C 770.49 437.93 785.60 443.73 792.35 457.81
  A 0.79 0.78 -12.4 0 0 793.04 458.25
  Q 811.88 458.39 830.50 458.24
  Q 830.97 458.24 831.37 458.12
  Q 831.95 457.96 831.86 457.36
  Q 825.34 414.26 808.81 378.00
  Q 798.62 355.65 782.91 331.43
  C 773.06 316.24 760.94 302.34 748.50 289.17
  Q 748.33 288.99 748.15 289.16
  C 735.57 300.86 723.25 311.94 711.02 323.41
  Q 676.56 355.74 640.67 386.91
  Q 636.24 390.76 631.42 394.05
  Q 631.13 394.25 631.27 394.58
  L 637.11 407.97
  A 1.08 1.07 -21.5 0 0 638.45 408.55
  L 666.38 398.56
  A 2.10 2.10 0.0 0 0 667.74 396.98
  C 670.01 385.05 683.07 377.08 694.76 378.76
  Q 708.11 380.68 713.30 394.08
  C 717.13 403.99 713.15 415.33 704.26 420.98
  Q 688.71 430.86 674.29 418.66
  Q 673.35 417.87 672.45 417.08
  Q 672.04 416.71 671.53 416.90
  Q 661.26 420.67 650.59 424.41
  Q 646.58 425.82 642.78 426.77
  A 1.25 1.25 0.0 0 0 641.86 428.27
  Q 645.14 442.74 644.04 457.56
  Q 643.99 458.27 644.70 458.26
  L 740.06 458.22
  A 0.85 0.85 0.0 0 0 740.85 457.68
  C 743.45 451.05 749.56 445.74 756.07 443.31
  Z
  M 195.82 425.12
  Q 190.97 443.07 189.11 457.76
  Q 189.04 458.35 189.63 458.34
  Q 216.63 458.10 244.25 458.42
  A 0.66 0.65 7.1 0 0 244.90 457.92
  Q 247.15 448.37 255.01 441.49
  C 261.68 435.65 269.68 433.74 278.30 434.51
  C 291.61 435.69 301.77 444.84 304.96 457.66
  Q 305.11 458.25 305.71 458.25
  L 376.98 458.27
  Q 377.52 458.27 377.50 457.73
  Q 377.02 445.09 378.96 432.83
  A 0.57 0.56 -76.5 0 0 378.59 432.21
  Q 360.11 425.92 341.21 419.83
  Q 322.01 413.64 301.91 407.26
  Q 301.21 407.04 300.66 407.53
  C 287.50 419.29 268.85 415.81 260.35 400.56
  C 254.03 389.23 258.15 373.78 268.87 367.00
  Q 277.58 361.49 288.15 363.38
  C 300.16 365.53 309.97 376.35 309.97 389.02
  A 0.84 0.83 9.2 0 0 310.55 389.81
  L 382.59 412.71
  A 0.74 0.74 0.0 0 0 383.54 412.13
  C 384.36 407.52 387.17 402.43 389.22 398.11
  A 0.63 0.62 -56.2 0 0 389.08 397.38
  Q 362.60 373.70 337.87 350.60
  Q 334.15 347.13 330.29 343.19
  A 1.21 1.20 -32.5 0 0 329.00 342.91
  C 318.06 347.08 306.44 344.08 299.07 335.35
  Q 290.26 324.93 293.79 311.89
  A 1.24 1.24 0.0 0 0 293.20 310.49
  Q 291.89 309.78 290.85 308.82
  Q 281.14 299.84 271.61 290.80
  A 1.21 1.21 0.0 0 0 269.99 290.76
  Q 268.68 291.88 267.58 293.20
  Q 256.76 306.21 246.74 319.80
  Q 237.48 332.35 227.72 348.96
  Q 206.79 384.57 195.82 425.12
  Z
  M 287.4852 468.6643
  A 13.28 12.82 12.5 0 0 277.2948 453.2739
  A 13.28 12.82 12.5 0 0 261.5548 462.9157
  A 13.28 12.82 12.5 0 0 271.7452 478.3061
  A 13.28 12.82 12.5 0 0 287.4852 468.6643
  Z
  M 419.71 733.65
  Q 408.34 729.33 397.26 726.50
  C 367.59 718.93 336.92 715.72 305.98 715.62
  Q 276.11 715.51 245.73 715.28
  A 0.82 0.81 -20.7 0 0 245.11 716.64
  L 269.54 743.75
  Q 269.91 744.16 270.46 744.11
  Q 288.33 742.67 302.43 742.18
  Q 352.99 740.42 399.37 747.69
  Q 430.18 752.52 461.29 760.82
  Q 468.03 762.62 474.98 765.71
  A 0.62 0.62 0.0 0 0 475.76 765.46
  Q 476.00 765.05 475.62 764.76
  Q 464.10 756.03 450.96 748.08
  Q 439.57 741.20 419.71 733.65
  Z
  M 568.11 758.32
  Q 620.53 744.35 676.28 742.30
  Q 713.23 740.94 750.98 744.01
  Q 751.51 744.06 751.85 743.65
  Q 762.01 731.43 774.10 718.48
  Q 774.90 717.63 775.42 716.51
  A 0.76 0.76 0.0 0 0 774.72 715.42
  C 750.43 715.76 726.33 715.22 699.58 715.90
  Q 660.17 716.91 620.80 726.81
  C 603.70 731.11 586.28 738.22 571.74 746.49
  Q 560.06 753.14 548.46 761.21
  Q 546.23 762.76 544.19 764.39
  Q 544.00 764.54 543.96 764.78
  Q 543.91 764.99 544.01 765.17
  Q 544.23 765.58 544.67 765.43
  Q 559.99 760.48 568.11 758.32
  Z
  M 452.27 811.16
  C 455.48 817.91 459.29 824.16 464.53 829.57
  Q 481.03 846.60 505.97 847.91
  C 518.72 848.58 532.86 845.74 543.63 838.91
  Q 559.86 828.61 567.77 811.20
  Q 568.02 810.67 568.60 810.67
  L 667.47 810.44
  A 3.74 3.74 0.0 0 0 669.32 809.95
  Q 689.02 798.83 706.40 785.25
  Q 707.93 784.05 705.98 784.05
  L 544.28 784.02
  A 0.48 0.48 0.0 0 0 543.80 784.50
  C 543.81 789.53 543.67 795.08 542.37 799.95
  C 537.80 817.14 519.87 828.22 502.22 823.41
  C 484.60 818.61 475.30 802.48 476.86 784.31
  Q 476.89 784.02 476.60 784.02
  L 314.43 784.00
  Q 314.08 784.00 314.16 784.33
  Q 314.28 784.92 314.77 785.29
  Q 331.78 798.25 353.03 810.23
  A 0.90 0.88 -30.2 0 0 353.46 810.34
  L 451.40 810.61
  A 0.96 0.96 0.0 0 1 452.27 811.16
  Z"
/>
<path fill="#fdf7ee" d="
  M 785.33 643.97
  L 713.26 643.97
  Q 667.50 643.60 621.75 643.93
  C 607.87 644.03 591.04 643.49 577.99 644.09
  Q 559.17 644.96 542.44 655.58
  Q 536.53 659.33 530.66 663.82
  Q 527.46 666.27 522.86 667.68
  Q 505.88 672.90 491.12 663.83
  Q 486.39 660.93 482.09 657.70
  C 474.89 652.29 466.63 648.51 457.94 646.19
  C 450.01 644.07 440.98 643.65 432.50 643.71
  Q 415.49 643.84 398.45 643.84
  L 302.53 643.87
  L 206.11 643.70
  Q 205.60 643.70 205.42 643.23
  Q 198.80 626.36 194.72 609.73
  A 0.79 0.79 0.0 0 1 195.51 608.76
  Q 213.45 609.24 231.21 608.72
  A 0.78 0.76 72.7 0 1 231.90 609.09
  C 238.81 620.27 251.17 627.43 264.12 622.92
  Q 279.23 617.66 282.30 602.35
  C 284.82 589.82 275.92 575.86 264.19 572.59
  C 250.31 568.72 236.81 575.18 231.98 588.99
  Q 231.79 589.51 231.25 589.51
  L 191.78 589.47
  A 0.72 0.71 84.0 0 1 191.08 588.90
  Q 186.07 565.56 184.88 541.22
  Q 184.86 540.83 185.24 540.83
  L 298.52 540.92
  A 0.74 0.74 0.0 0 1 299.21 541.40
  C 304.62 556.34 318.53 566.25 334.32 562.40
  Q 351.30 558.27 356.55 541.40
  C 358.54 534.99 357.76 526.92 354.72 520.73
  Q 347.71 506.45 331.82 504.21
  C 319.56 502.49 305.17 510.09 301.08 521.79
  Q 300.89 522.34 300.30 522.34
  L 184.41 522.05
  Q 184.33 522.05 184.33 521.97
  Q 184.11 499.72 186.57 477.25
  A 0.67 0.66 -85.8 0 1 187.25 476.66
  C 206.01 477.25 224.91 477.05 244.08 476.93
  A 0.61 0.61 0.0 0 1 244.66 477.31
  C 249.20 487.89 257.21 495.34 268.87 497.52
  C 283.74 500.30 298.79 491.13 304.43 477.32
  A 0.55 0.55 0.0 0 1 304.94 476.98
  L 378.60 476.88
  Q 379.17 476.88 379.26 477.43
  Q 380.13 482.29 381.70 487.36
  Q 395.12 530.83 430.20 557.57
  Q 453.47 575.31 483.54 580.92
  Q 530.15 589.61 573.94 568.90
  A 1.05 1.05 0.0 0 0 574.36 567.37
  L 564.25 552.13
  Q 563.92 551.64 563.40 551.93
  Q 561.77 552.84 560.26 553.38
  C 552.20 556.26 544.11 559.14 535.53 560.90
  Q 520.57 563.98 504.06 563.16
  Q 503.53 563.14 503.53 562.61
  Q 503.42 539.63 503.64 517.46
  Q 503.67 514.66 501.57 512.52
  C 497.27 508.15 489.88 508.98 487.41 514.79
  Q 486.38 517.20 486.41 520.64
  Q 486.56 537.20 486.61 554.84
  Q 486.62 557.38 486.48 559.92
  A 0.32 0.32 0.0 0 1 486.07 560.21
  Q 482.37 559.04 478.09 557.81
  Q 453.91 550.85 434.72 533.75
  A 1.07 1.06 -45.5 0 1 434.71 532.17
  Q 436.04 530.96 437.08 529.52
  Q 444.59 519.13 450.47 509.27
  C 451.99 506.72 454.99 506.15 456.74 503.74
  Q 460.95 497.92 457.92 492.21
  C 453.18 483.30 441.25 486.60 439.47 495.78
  C 439.08 497.77 438.54 499.29 437.10 500.84
  Q 429.00 509.53 422.63 519.34
  Q 422.17 520.05 421.64 519.38
  C 413.66 509.22 407.93 497.55 402.81 485.86
  Q 402.46 485.06 403.33 485.06
  Q 414.46 485.14 425.81 485.40
  C 432.27 485.54 437.46 477.68 433.82 471.88
  Q 430.41 466.46 423.20 467.43
  Q 420.91 467.74 418.81 467.72
  Q 409.64 467.66 399.79 467.57
  A 0.44 0.44 0.0 0 1 399.35 467.12
  Q 399.41 463.15 398.56 458.15
  Q 398.50 457.77 398.87 457.77
  Q 427.63 457.61 452.64 458.23
  Q 457.08 458.33 460.43 454.64
  C 465.73 448.80 460.91 440.45 453.74 440.02
  C 451.43 439.88 449.08 440.51 446.73 440.51
  Q 424.68 440.46 399.84 440.64
  Q 398.93 440.65 399.07 439.75
  L 400.27 432.29
  Q 400.40 431.51 401.20 431.50
  Q 414.94 431.42 427.89 431.80
  C 434.10 431.98 439.38 426.45 436.97 420.10
  C 435.01 414.95 430.29 414.20 425.20 414.55
  Q 415.57 415.21 405.09 414.11
  A 0.05 0.05 0.0 0 1 405.05 414.04
  Q 406.76 410.45 408.91 406.94
  A 0.39 0.39 0.0 0 1 409.26 406.75
  Q 421.93 407.15 433.75 407.02
  C 436.49 407.00 439.14 407.44 441.86 407.76
  Q 443.86 407.98 445.43 407.13
  C 456.26 401.23 451.16 388.70 439.73 389.49
  Q 428.82 390.24 418.32 389.68
  Q 417.59 389.64 417.95 389.01
  C 422.47 381.18 429.29 374.15 436.12 367.82
  Q 436.59 367.38 436.99 367.89
  C 441.85 374.13 447.77 378.49 453.83 383.30
  Q 459.60 387.88 466.09 386.38
  C 473.30 384.72 477.38 376.50 472.67 370.25
  C 470.79 367.76 466.80 365.48 463.49 366.50
  Q 462.54 366.80 461.59 366.80
  A 0.92 0.89 -22.3 0 1 460.96 366.55
  L 451.46 357.41
  A 0.92 0.92 0.0 0 1 451.74 355.90
  C 456.75 353.78 461.59 350.90 466.69 348.96
  Q 476.30 345.31 486.14 342.66
  Q 486.41 342.59 486.41 342.86
  Q 486.77 353.00 486.23 364.68
  Q 486.06 368.44 486.97 370.72
  C 490.12 378.67 500.28 378.73 503.42 370.74
  C 504.82 367.18 503.50 362.80 503.49 358.93
  Q 503.46 341.88 503.63 322.73
  Q 503.64 321.45 503.46 320.30
  A 0.45 0.44 81.9 0 0 502.97 319.93
  L 487.02 321.80
  Q 485.85 321.93 485.86 320.77
  L 486.04 266.42
  A 1.38 1.37 72.6 0 1 486.63 265.29
  C 498.03 257.20 502.31 243.11 495.26 230.76
  Q 490.24 221.99 481.43 219.07
  C 470.20 215.36 457.60 218.70 450.85 228.75
  C 442.65 240.96 445.44 256.42 457.59 264.94
  C 459.98 266.62 463.03 267.76 466.00 267.90
  A 0.81 0.80 -88.5 0 1 466.76 268.71
  L 466.73 326.60
  Q 466.73 327.14 466.22 327.31
  Q 450.23 332.86 436.45 342.48
  A 0.70 0.70 0.0 0 1 435.46 342.30
  L 411.05 306.17
  A 1.28 1.28 0.0 0 1 411.21 304.56
  C 419.50 296.38 422.82 285.97 417.97 275.00
  C 410.49 258.09 390.27 253.47 376.42 265.05
  A 0.71 0.71 0.0 0 1 375.47 265.02
  L 341.89 233.59
  A 0.80 0.80 0.0 0 1 342.00 232.33
  Q 353.37 224.95 365.91 218.70
  Q 395.17 204.13 420.28 196.52
  C 444.68 189.11 472.36 183.77 496.94 183.30
  Q 515.10 182.96 536.33 183.86
  A 0.53 0.52 -89.4 0 1 536.83 184.38
  L 536.94 205.03
  A 0.84 0.84 0.0 0 1 536.44 205.80
  Q 518.56 213.56 518.31 233.45
  C 518.16 244.97 526.18 254.99 536.31 259.36
  Q 536.75 259.55 536.75 260.02
  L 536.76 321.50
  A 0.45 0.45 0.0 0 1 536.26 321.95
  L 521.26 320.32
  A 0.68 0.68 0.0 0 0 520.51 321.00
  L 520.57 339.97
  A 0.62 0.62 0.0 0 0 521.13 340.58
  Q 528.58 341.28 535.95 343.07
  Q 570.92 351.57 593.57 376.56
  C 613.15 398.17 623.28 425.77 623.53 454.92
  C 623.60 462.22 622.83 469.28 622.42 476.53
  Q 622.39 477.10 622.95 477.10
  L 737.41 476.80
  Q 737.95 476.80 738.12 477.32
  Q 742.88 492.07 757.18 497.44
  Q 764.84 500.32 773.67 497.57
  Q 789.01 492.78 793.60 477.38
  A 0.60 0.58 -81.2 0 1 794.16 476.96
  L 834.24 476.91
  Q 834.57 476.91 834.61 477.23
  Q 837.58 499.86 837.19 521.70
  Q 837.18 522.18 836.71 522.18
  L 663.47 522.30
  Q 662.80 522.30 662.55 521.69
  C 656.34 506.40 640.93 498.35 625.52 503.11
  C 614.98 506.37 607.50 513.88 605.09 524.59
  Q 600.95 542.94 615.16 554.78
  C 621.71 560.24 631.73 562.56 640.36 560.35
  Q 655.53 556.48 661.68 541.99
  Q 662.15 540.91 663.32 540.91
  L 836.11 540.91
  A 0.24 0.23 3.2 0 1 836.35 541.17
  Q 835.09 555.43 833.00 570.39
  A 1.11 1.10 3.9 0 1 831.90 571.34
  Q 815.92 571.35 799.01 571.21
  C 795.43 571.19 792.85 569.22 789.47 568.60
  Q 779.75 566.81 771.38 571.80
  C 764.82 575.70 760.24 584.24 760.42 592.24
  C 760.67 602.71 766.98 610.59 776.60 614.10
  Q 787.73 618.16 798.80 610.18
  Q 807.63 603.81 808.36 592.35
  Q 808.40 591.76 808.99 591.76
  L 829.16 591.74
  Q 829.69 591.73 829.58 592.25
  C 826.02 608.40 822.27 624.56 816.93 640.00
  Q 816.32 641.77 815.60 643.50
  Q 815.40 643.97 814.89 643.97
  L 785.33 643.97
  Z
  M 475.92 531.45
  A 9.37 9.37 0.0 0 0 466.55 522.08
  A 9.37 9.37 0.0 0 0 457.18 531.45
  A 9.37 9.37 0.0 0 0 466.55 540.82
  A 9.37 9.37 0.0 0 0 475.92 531.45
  Z
  M 735.1895 589.4659
  A 24.02 23.57 -6.2 0 0 708.7645 568.6279
  A 24.02 23.57 -6.2 0 0 687.4305 594.6541
  A 24.02 23.57 -6.2 0 0 713.8555 615.4921
  A 24.02 23.57 -6.2 0 0 735.1895 589.4659
  Z
  M 309.92 613.30
  Q 313.91 612.87 318.25 612.88
  Q 355.77 612.99 393.29 613.02
  Q 425.06 613.37 441.74 613.03
  Q 458.82 612.69 472.65 620.98
  C 478.34 624.38 483.41 628.77 489.44 631.71
  Q 509.56 641.51 531.05 631.94
  Q 534.02 630.61 537.23 628.37
  C 542.07 624.99 546.80 621.27 551.99 618.76
  C 561.70 614.08 573.08 612.98 583.73 613.00
  Q 620.21 613.08 652.36 613.03
  C 656.11 613.02 659.70 613.47 663.41 612.86
  C 675.30 610.89 674.66 595.25 664.08 592.40
  Q 661.11 591.59 656.65 592.64
  Q 652.65 593.58 646.82 593.56
  Q 617.34 593.43 582.45 593.56
  Q 574.72 593.59 567.22 594.33
  C 555.97 595.44 544.04 600.12 534.75 607.11
  C 529.20 611.28 522.51 614.85 515.71 615.82
  Q 501.64 617.85 490.52 609.81
  Q 483.77 604.93 476.51 601.05
  Q 464.10 594.41 449.75 593.83
  Q 432.44 593.13 395.04 593.52
  L 313.34 593.18
  Q 307.14 590.60 302.10 593.82
  C 297.10 597.02 295.51 603.05 298.48 608.16
  Q 301.66 613.64 309.92 613.30
  Z"
/>
<path fill="#fdf7ee" d="
  M 647.07 315.00
  C 642.24 304.04 628.25 306.07 625.70 317.66
  C 625.35 319.26 623.72 319.74 622.64 320.75
  Q 610.29 332.35 596.93 344.00
  C 596.17 344.67 595.63 345.56 594.94 346.29
  Q 594.19 347.09 593.41 346.33
  Q 589.67 342.68 584.77 339.78
  A 1.31 1.31 0.0 0 1 584.25 338.11
  Q 585.96 334.33 587.92 330.90
  Q 594.50 319.33 599.11 308.72
  Q 599.56 307.67 600.51 307.09
  C 607.75 302.67 610.54 294.37 604.58 287.51
  C 601.03 283.43 594.69 282.43 590.29 286.00
  C 587.57 288.20 586.40 291.27 586.26 294.80
  Q 586.21 296.06 585.43 297.28
  Q 575.39 313.04 567.32 330.16
  A 1.27 1.27 0.0 0 1 565.59 330.75
  Q 561.37 328.59 556.64 327.21
  A 1.65 1.65 0.0 0 1 555.46 325.63
  Q 555.50 295.16 555.66 267.74
  Q 555.67 264.63 556.00 261.29
  Q 556.12 260.10 557.27 259.78
  C 562.39 258.34 567.54 253.39 570.64 249.46
  C 582.44 234.48 574.43 211.77 556.97 205.60
  A 1.64 1.63 9.2 0 1 555.89 204.11
  Q 555.66 196.42 556.07 188.06
  A 0.93 0.92 4.7 0 1 557.10 187.19
  Q 565.15 188.09 573.13 189.92
  C 600.03 196.08 626.36 204.59 648.74 215.57
  Q 671.96 226.96 693.05 241.99
  A 0.65 0.65 0.0 0 1 693.12 242.99
  Q 675.81 259.49 657.84 276.72
  Q 653.47 280.90 654.52 285.62
  Q 655.57 290.36 659.65 292.51
  Q 665.67 295.70 671.48 290.40
  Q 690.28 273.26 710.27 254.26
  Q 710.60 253.94 710.95 254.25
  L 733.89 274.43
  Q 734.41 274.88 733.90 275.35
  Q 717.15 290.86 700.98 306.09
  Q 693.85 312.79 686.24 319.62
  Q 659.50 343.61 633.06 368.31
  Q 628.15 372.89 623.63 377.49
  A 1.11 1.11 0.0 0 1 621.99 377.43
  C 619.37 374.37 617.37 370.80 614.71 367.77
  Q 611.57 364.22 608.44 360.49
  A 1.06 1.06 0.0 0 1 608.55 359.01
  C 616.51 352.04 624.39 345.49 631.86 338.01
  Q 636.83 333.03 641.66 329.02
  C 645.64 325.72 649.48 320.48 647.07 315.00
  Z
  M 641.88 246.39
  A 17.69 17.69 0.0 0 0 624.19 228.70
  A 17.69 17.69 0.0 0 0 606.50 246.39
  A 17.69 17.69 0.0 0 0 624.19 264.08
  A 17.69 17.69 0.0 0 0 641.88 246.39
  Z"
/>
<circle fill="#00131c" cx="624.19" cy="246.39" r="17.69"/>
<path fill="#fdf7ee" d="
  M 344.05 305.41
  C 336.40 291.73 320.17 287.00 306.72 294.96
  Q 306.25 295.24 305.77 294.95
  Q 303.12 293.35 300.86 291.34
  Q 293.31 284.61 285.61 277.42
  Q 283.97 275.88 285.71 274.47
  L 323.34 243.91
  Q 323.71 243.60 324.04 243.96
  Q 327.01 247.18 330.05 249.89
  Q 346.62 264.67 363.84 280.84
  C 364.53 281.49 365.32 281.94 366.06 282.52
  Q 366.53 282.89 366.48 283.48
  C 365.14 298.43 377.14 310.50 391.60 311.81
  Q 392.30 311.88 392.69 312.47
  L 420.59 354.48
  A 0.61 0.61 0.0 0 1 420.42 355.32
  Q 417.80 357.11 415.69 359.33
  Q 406.56 368.89 399.77 380.46
  A 0.63 0.62 -52.9 0 1 398.81 380.60
  L 344.78 330.14
  A 1.28 1.28 0.0 0 1 344.58 328.53
  Q 345.77 326.64 346.36 324.42
  Q 349.02 314.29 344.05 305.41
  Z"
/>
<path fill="#fdf7ee" d="
  M 792.35 457.81
  C 785.60 443.73 770.49 437.93 756.07 443.31
  C 749.56 445.74 743.45 451.05 740.85 457.68
  A 0.85 0.85 0.0 0 1 740.06 458.22
  L 644.70 458.26
  Q 643.99 458.27 644.04 457.56
  Q 645.14 442.74 641.86 428.27
  A 1.25 1.25 0.0 0 1 642.78 426.77
  Q 646.58 425.82 650.59 424.41
  Q 661.26 420.67 671.53 416.90
  Q 672.04 416.71 672.45 417.08
  Q 673.35 417.87 674.29 418.66
  Q 688.71 430.86 704.26 420.98
  C 713.15 415.33 717.13 403.99 713.30 394.08
  Q 708.11 380.68 694.76 378.76
  C 683.07 377.08 670.01 385.05 667.74 396.98
  A 2.10 2.10 0.0 0 1 666.38 398.56
  L 638.45 408.55
  A 1.08 1.07 -21.5 0 1 637.11 407.97
  L 631.27 394.58
  Q 631.13 394.25 631.42 394.05
  Q 636.24 390.76 640.67 386.91
  Q 676.56 355.74 711.02 323.41
  C 723.25 311.94 735.57 300.86 748.15 289.16
  Q 748.33 288.99 748.50 289.17
  C 760.94 302.34 773.06 316.24 782.91 331.43
  Q 798.62 355.65 808.81 378.00
  Q 825.34 414.26 831.86 457.36
  Q 831.95 457.96 831.37 458.12
  Q 830.97 458.24 830.50 458.24
  Q 811.88 458.39 793.04 458.25
  A 0.79 0.78 -12.4 0 1 792.35 457.81
  Z
  M 757.02 348.66
  A 17.21 17.21 0.0 0 0 739.81 331.45
  A 17.21 17.21 0.0 0 0 722.60 348.66
  A 17.21 17.21 0.0 0 0 739.81 365.87
  A 17.21 17.21 0.0 0 0 757.02 348.66
  Z
  M 784.26 403.08
  A 18.24 18.24 0.0 0 0 766.02 384.84
  A 18.24 18.24 0.0 0 0 747.78 403.08
  A 18.24 18.24 0.0 0 0 766.02 421.32
  A 18.24 18.24 0.0 0 0 784.26 403.08
  Z"
/>
<path fill="#fdf7ee" d="
  M 195.82 425.12
  Q 206.79 384.57 227.72 348.96
  Q 237.48 332.35 246.74 319.80
  Q 256.76 306.21 267.58 293.20
  Q 268.68 291.88 269.99 290.76
  A 1.21 1.21 0.0 0 1 271.61 290.80
  Q 281.14 299.84 290.85 308.82
  Q 291.89 309.78 293.20 310.49
  A 1.24 1.24 0.0 0 1 293.79 311.89
  Q 290.26 324.93 299.07 335.35
  C 306.44 344.08 318.06 347.08 329.00 342.91
  A 1.21 1.20 -32.5 0 1 330.29 343.19
  Q 334.15 347.13 337.87 350.60
  Q 362.60 373.70 389.08 397.38
  A 0.63 0.62 -56.2 0 1 389.22 398.11
  C 387.17 402.43 384.36 407.52 383.54 412.13
  A 0.74 0.74 0.0 0 1 382.59 412.71
  L 310.55 389.81
  A 0.84 0.83 9.2 0 1 309.97 389.02
  C 309.97 376.35 300.16 365.53 288.15 363.38
  Q 277.58 361.49 268.87 367.00
  C 258.15 373.78 254.03 389.23 260.35 400.56
  C 268.85 415.81 287.50 419.29 300.66 407.53
  Q 301.21 407.04 301.91 407.26
  Q 322.01 413.64 341.21 419.83
  Q 360.11 425.92 378.59 432.21
  A 0.57 0.56 -76.5 0 1 378.96 432.83
  Q 377.02 445.09 377.50 457.73
  Q 377.52 458.27 376.98 458.27
  L 305.71 458.25
  Q 305.11 458.25 304.96 457.66
  C 301.77 444.84 291.61 435.69 278.30 434.51
  C 269.68 433.74 261.68 435.65 255.01 441.49
  Q 247.15 448.37 244.90 457.92
  A 0.66 0.65 7.1 0 1 244.25 458.42
  Q 216.63 458.10 189.63 458.34
  Q 189.04 458.35 189.11 457.76
  Q 190.97 443.07 195.82 425.12
  Z"
/>
<circle fill="#00131c" cx="739.81" cy="348.66" r="17.21"/>
<circle fill="#00131c" cx="766.02" cy="403.08" r="18.24"/>
<ellipse fill="#fdf7ee" cx="0.00" cy="0.00" transform="translate(274.52,465.79) rotate(12.5)" rx="13.28" ry="12.82"/>
<circle fill="#00131c" cx="466.55" cy="531.45" r="9.37"/>
<ellipse fill="#00131c" cx="0.00" cy="0.00" transform="translate(711.31,592.06) rotate(-6.2)" rx="24.02" ry="23.57"/>
<path fill="#0e3445" d="
  M 313.34 593.18
  Q 313.24 593.39 313.07 593.70
  Q 312.64 594.47 313.49 594.37
  Q 313.65 594.35 313.73 594.66
  Q 313.79 594.90 313.71 595.14
  Q 313.12 596.80 312.84 598.56
  Q 312.80 598.81 312.55 598.78
  Q 312.49 598.77 312.46 598.71
  Q 312.21 598.13 312.04 598.74
  C 311.56 600.48 311.11 601.82 311.17 603.78
  C 311.21 605.42 310.56 606.94 310.68 608.57
  Q 310.73 609.32 310.66 610.17
  Q 310.62 610.78 310.11 611.12
  Q 309.72 611.38 309.94 611.86
  Q 310.10 612.21 309.99 612.58
  Q 309.87 612.96 309.92 613.30
  Q 301.66 613.64 298.48 608.16
  C 295.51 603.05 297.10 597.02 302.10 593.82
  Q 307.14 590.60 313.34 593.18
  Z"
/>
<path fill="#2f7796" d="
  M 393.29 613.02
  L 396.60 610.96
  Q 397.19 610.59 396.80 610.01
  Q 396.45 609.50 396.83 608.99
  Q 397.18 608.54 397.16 607.96
  Q 397.13 606.67 397.66 605.64
  A 15.28 10.98 75.5 0 0 398.70 602.96
  Q 398.99 601.89 399.10 600.85
  A 1.96 1.91 66.1 0 1 399.45 599.91
  Q 400.28 598.73 400.11 597.33
  A 0.98 0.98 0.0 0 1 400.42 596.49
  Q 401.13 595.81 400.64 594.83
  Q 400.32 594.20 399.62 594.37
  Q 398.69 594.61 397.99 594.01
  Q 397.60 593.69 397.08 593.65
  L 395.04 593.52
  Q 432.44 593.13 449.75 593.83
  Q 464.10 594.41 476.51 601.05
  Q 483.77 604.93 490.52 609.81
  Q 501.64 617.85 515.71 615.82
  C 522.51 614.85 529.20 611.28 534.75 607.11
  C 544.04 600.12 555.97 595.44 567.22 594.33
  Q 574.72 593.59 582.45 593.56
  Q 617.34 593.43 646.82 593.56
  Q 652.65 593.58 656.65 592.64
  Q 661.11 591.59 664.08 592.40
  C 674.66 595.25 675.30 610.89 663.41 612.86
  C 659.70 613.47 656.11 613.02 652.36 613.03
  Q 620.21 613.08 583.73 613.00
  C 573.08 612.98 561.70 614.08 551.99 618.76
  C 546.80 621.27 542.07 624.99 537.23 628.37
  Q 534.02 630.61 531.05 631.94
  Q 509.56 641.51 489.44 631.71
  C 483.41 628.77 478.34 624.38 472.65 620.98
  Q 458.82 612.69 441.74 613.03
  Q 425.06 613.37 393.29 613.02
  Z"
/>
<path fill="#1e5167" d="
  M 313.34 593.18
  L 395.04 593.52
  L 397.08 593.65
  Q 397.60 593.69 397.99 594.01
  Q 398.69 594.61 399.62 594.37
  Q 400.32 594.20 400.64 594.83
  Q 401.13 595.81 400.42 596.49
  A 0.98 0.98 0.0 0 0 400.11 597.33
  Q 400.28 598.73 399.45 599.91
  A 1.96 1.91 66.1 0 0 399.10 600.85
  Q 398.99 601.89 398.70 602.96
  A 15.28 10.98 75.5 0 1 397.66 605.64
  Q 397.13 606.67 397.16 607.96
  Q 397.18 608.54 396.83 608.99
  Q 396.45 609.50 396.80 610.01
  Q 397.19 610.59 396.60 610.96
  L 393.29 613.02
  Q 355.77 612.99 318.25 612.88
  Q 313.91 612.87 309.92 613.30
  Q 309.87 612.96 309.99 612.58
  Q 310.10 612.21 309.94 611.86
  Q 309.72 611.38 310.11 611.12
  Q 310.62 610.78 310.66 610.17
  Q 310.73 609.32 310.68 608.57
  C 310.56 606.94 311.21 605.42 311.17 603.78
  C 311.11 601.82 311.56 600.48 312.04 598.74
  Q 312.21 598.13 312.46 598.71
  Q 312.49 598.77 312.55 598.78
  Q 312.80 598.81 312.84 598.56
  Q 313.12 596.80 313.71 595.14
  Q 313.79 594.90 313.73 594.66
  Q 313.65 594.35 313.49 594.37
  Q 312.64 594.47 313.07 593.70
  Q 313.24 593.39 313.34 593.18
  Z"
/>
<path fill="#0e3445" d="
  M 398.45 643.84
  Q 406.21 644.24 414.00 644.03
  Q 415.30 643.99 416.49 645.03
  Q 416.75 645.27 417.09 645.34
  Q 417.51 645.43 417.92 645.35
  Q 418.32 645.27 417.92 645.42
  Q 417.84 645.45 417.76 645.49
  Q 417.60 645.56 417.40 645.60
  Q 413.04 646.39 408.79 646.10
  Q 408.15 646.06 407.63 646.42
  Q 406.73 647.04 405.88 646.55
  Q 405.31 646.23 404.68 646.44
  Q 403.26 646.92 401.70 647.11
  Q 401.02 647.19 400.91 647.81
  Q 400.84 648.24 400.44 648.42
  L 396.26 650.31
  A 1.14 1.08 89.9 0 0 395.69 650.91
  L 394.86 653.06
  Q 394.67 653.55 394.21 653.81
  Q 393.31 654.31 392.82 655.30
  Q 392.61 655.71 392.28 656.03
  L 388.57 659.59
  Q 388.17 659.97 387.65 660.12
  C 387.39 660.19 387.05 660.35 386.87 660.56
  Q 386.74 660.71 386.89 660.84
  Q 387.45 661.32 386.73 661.47
  Q 383.55 662.14 380.27 661.82
  Q 380.11 661.81 380.09 661.97
  L 380.06 662.28
  Q 380.04 662.51 380.27 662.56
  L 383.98 663.38
  L 247.46 663.46
  L 250.61 662.89
  Q 250.88 662.84 250.77 662.58
  Q 250.70 662.40 250.55 662.46
  Q 250.05 662.65 250.47 662.32
  Q 252.01 661.11 252.54 659.22
  Q 252.69 658.69 253.09 658.31
  Q 254.40 657.04 254.82 655.36
  Q 255.15 654.03 256.02 652.63
  Q 257.83 649.73 258.81 646.90
  Q 258.95 646.52 259.33 646.38
  Q 261.89 645.43 264.47 645.40
  Q 266.86 645.36 269.03 645.02
  C 271.12 644.68 272.96 645.25 275.02 645.12
  Q 279.48 644.83 284.08 644.90
  Q 284.37 644.90 284.45 644.63
  Q 284.50 644.49 284.65 644.46
  C 287.23 644.07 289.41 645.03 291.92 644.89
  Q 297.64 644.56 302.70 644.77
  C 303.84 644.82 304.75 644.46 305.80 644.11
  Q 305.94 644.06 305.79 644.05
  L 302.53 643.87
  L 398.45 643.84
  Z"
/>
<path fill="#1e5167" d="
  M 398.45 643.84
  Q 415.49 643.84 432.50 643.71
  C 440.98 643.65 450.01 644.07 457.94 646.19
  C 466.63 648.51 474.89 652.29 482.09 657.70
  Q 486.39 660.93 491.12 663.83
  Q 505.88 672.90 522.86 667.68
  Q 527.46 666.27 530.66 663.82
  Q 536.53 659.33 542.44 655.58
  Q 559.17 644.96 577.99 644.09
  C 591.04 643.49 607.87 644.03 621.75 643.93
  Q 667.50 643.60 713.26 643.97
  L 700.74 644.40
  Q 700.30 644.42 700.55 644.78
  Q 701.22 645.72 702.17 645.47
  Q 702.65 645.33 703.03 645.66
  Q 703.36 645.94 703.79 645.91
  Q 709.19 645.55 713.65 646.50
  Q 714.14 646.60 714.37 647.03
  Q 714.88 647.98 715.12 649.06
  Q 716.02 653.15 718.07 656.68
  Q 718.53 657.47 717.92 658.21
  Q 717.62 658.58 718.04 658.78
  Q 719.24 659.35 718.53 660.44
  Q 718.36 660.70 718.65 660.80
  Q 719.76 661.16 719.95 662.37
  Q 719.97 662.52 720.12 662.52
  Q 720.33 662.53 720.32 662.28
  A 0.04 0.03 -51.5 0 1 720.39 662.27
  Q 720.44 662.56 720.28 662.79
  Q 720.12 663.01 720.38 663.06
  L 722.72 663.50
  Q 653.73 663.50 584.76 663.19
  Q 562.77 663.10 543.89 677.01
  Q 537.15 681.97 533.74 683.89
  Q 518.38 692.53 498.75 688.15
  C 490.87 686.39 484.03 681.99 477.26 677.05
  Q 457.73 662.78 433.99 663.01
  Q 408.97 663.26 383.98 663.38
  L 380.27 662.56
  Q 380.04 662.51 380.06 662.28
  L 380.09 661.97
  Q 380.11 661.81 380.27 661.82
  Q 383.55 662.14 386.73 661.47
  Q 387.45 661.32 386.89 660.84
  Q 386.74 660.71 386.87 660.56
  C 387.05 660.35 387.39 660.19 387.65 660.12
  Q 388.17 659.97 388.57 659.59
  L 392.28 656.03
  Q 392.61 655.71 392.82 655.30
  Q 393.31 654.31 394.21 653.81
  Q 394.67 653.55 394.86 653.06
  L 395.69 650.91
  A 1.14 1.08 89.9 0 1 396.26 650.31
  L 400.44 648.42
  Q 400.84 648.24 400.91 647.81
  Q 401.02 647.19 401.70 647.11
  Q 403.26 646.92 404.68 646.44
  Q 405.31 646.23 405.88 646.55
  Q 406.73 647.04 407.63 646.42
  Q 408.15 646.06 408.79 646.10
  Q 413.04 646.39 417.40 645.60
  Q 417.60 645.56 417.76 645.49
  Q 417.84 645.45 417.92 645.42
  Q 418.32 645.27 417.92 645.35
  Q 417.51 645.43 417.09 645.34
  Q 416.75 645.27 416.49 645.03
  Q 415.30 643.99 414.00 644.03
  Q 406.21 644.24 398.45 643.84
  Z"
/>
<path fill="#0e3445" d="
  M 785.33 643.97
  Q 782.45 644.70 779.67 644.35
  Q 778.93 644.25 779.66 644.41
  Q 781.21 644.76 783.03 644.64
  Q 783.57 644.60 784.01 644.90
  Q 784.45 645.20 784.95 645.19
  Q 785.61 645.19 785.07 645.56
  Q 785.02 645.59 784.97 645.61
  Q 784.73 645.67 784.96 645.75
  C 785.87 646.06 786.35 646.85 786.17 647.79
  Q 786.01 648.58 786.39 649.31
  Q 786.61 649.74 786.55 650.22
  Q 786.28 652.38 787.03 654.15
  Q 787.74 655.83 787.61 657.15
  Q 787.45 658.75 787.16 660.20
  A 0.81 0.81 0.0 0 0 787.62 661.10
  Q 788.23 661.37 788.28 662.04
  A 1.09 1.09 0.0 0 0 789.55 663.04
  Q 791.69 662.69 792.30 663.48
  L 722.72 663.50
  L 720.38 663.06
  Q 720.12 663.01 720.28 662.79
  Q 720.44 662.56 720.39 662.27
  A 0.04 0.03 -51.5 0 0 720.32 662.28
  Q 720.33 662.53 720.12 662.52
  Q 719.97 662.52 719.95 662.37
  Q 719.76 661.16 718.65 660.80
  Q 718.36 660.70 718.53 660.44
  Q 719.24 659.35 718.04 658.78
  Q 717.62 658.58 717.92 658.21
  Q 718.53 657.47 718.07 656.68
  Q 716.02 653.15 715.12 649.06
  Q 714.88 647.98 714.37 647.03
  Q 714.14 646.60 713.65 646.50
  Q 709.19 645.55 703.79 645.91
  Q 703.36 645.94 703.03 645.66
  Q 702.65 645.33 702.17 645.47
  Q 701.22 645.72 700.55 644.78
  Q 700.30 644.42 700.74 644.40
  L 713.26 643.97
  L 785.33 643.97
  Z"
/>
<path fill="#fdf7ee" d="
  M 247.46 663.46
  L 383.98 663.38
  Q 408.97 663.26 433.99 663.01
  Q 457.73 662.78 477.26 677.05
  C 484.03 681.99 490.87 686.39 498.75 688.15
  Q 518.38 692.53 533.74 683.89
  Q 537.15 681.97 543.89 677.01
  Q 562.77 663.10 584.76 663.19
  Q 653.73 663.50 722.72 663.50
  L 792.30 663.48
  L 804.77 663.66
  Q 806.16 663.68 805.54 664.93
  Q 798.60 678.82 793.35 689.07
  Q 791.58 692.54 789.61 695.47
  Q 789.34 695.88 788.85 695.87
  Q 770.72 695.71 750.64 696.00
  Q 749.86 696.02 749.23 695.58
  A 0.24 0.23 40.9 0 1 749.20 695.21
  Q 757.37 688.09 764.60 679.61
  Q 764.70 679.49 764.77 679.36
  Q 764.96 679.03 764.35 678.67
  A 0.84 0.83 60.0 0 0 763.87 678.54
  Q 755.38 678.80 746.51 678.72
  Q 707.82 678.37 675.00 678.58
  Q 648.86 678.75 623.92 683.29
  C 614.78 684.96 605.10 687.75 595.56 690.37
  Q 587.25 692.66 574.90 698.33
  C 557.58 706.29 543.10 717.21 530.63 731.10
  Q 517.19 746.07 511.29 764.95
  Q 511.00 765.88 510.61 764.99
  C 509.60 762.67 508.96 760.16 507.86 757.88
  C 495.65 732.64 475.11 713.22 450.21 700.79
  C 420.00 685.72 384.71 678.93 350.71 678.66
  Q 308.55 678.33 266.22 678.57
  Q 261.03 678.59 255.60 678.81
  A 0.41 0.41 0.0 0 0 255.32 679.51
  L 270.70 695.35
  Q 271.30 695.96 270.45 695.96
  L 232.82 695.77
  Q 232.38 695.77 232.14 695.40
  Q 222.50 680.58 215.17 663.98
  Q 214.91 663.39 215.55 663.39
  L 247.46 663.46
  Z"
/>
<path fill="#fdf7ee" d="
  M 419.71 733.65
  Q 439.57 741.20 450.96 748.08
  Q 464.10 756.03 475.62 764.76
  Q 476.00 765.05 475.76 765.46
  A 0.62 0.62 0.0 0 1 474.98 765.71
  Q 468.03 762.62 461.29 760.82
  Q 430.18 752.52 399.37 747.69
  Q 352.99 740.42 302.43 742.18
  Q 288.33 742.67 270.46 744.11
  Q 269.91 744.16 269.54 743.75
  L 245.11 716.64
  A 0.82 0.81 -20.7 0 1 245.73 715.28
  Q 276.11 715.51 305.98 715.62
  C 336.92 715.72 367.59 718.93 397.26 726.50
  Q 408.34 729.33 419.71 733.65
  Z"
/>
<path fill="#fdf7ee" d="
  M 568.11 758.32
  Q 559.99 760.48 544.67 765.43
  Q 544.23 765.58 544.01 765.17
  Q 543.91 764.99 543.96 764.78
  Q 544.00 764.54 544.19 764.39
  Q 546.23 762.76 548.46 761.21
  Q 560.06 753.14 571.74 746.49
  C 586.28 738.22 603.70 731.11 620.80 726.81
  Q 660.17 716.91 699.58 715.90
  C 726.33 715.22 750.43 715.76 774.72 715.42
  A 0.76 0.76 0.0 0 1 775.42 716.51
  Q 774.90 717.63 774.10 718.48
  Q 762.01 731.43 751.85 743.65
  Q 751.51 744.06 750.98 744.01
  Q 713.23 740.94 676.28 742.30
  Q 620.53 744.35 568.11 758.32
  Z"
/>
<path fill="#fdf7ee" d="
  M 452.27 811.16
  A 0.96 0.96 0.0 0 0 451.40 810.61
  L 353.46 810.34
  A 0.90 0.88 -30.2 0 1 353.03 810.23
  Q 331.78 798.25 314.77 785.29
  Q 314.28 784.92 314.16 784.33
  Q 314.08 784.00 314.43 784.00
  L 476.60 784.02
  Q 476.89 784.02 476.86 784.31
  C 475.30 802.48 484.60 818.61 502.22 823.41
  C 519.87 828.22 537.80 817.14 542.37 799.95
  C 543.67 795.08 543.81 789.53 543.80 784.50
  A 0.48 0.48 0.0 0 1 544.28 784.02
  L 705.98 784.05
  Q 707.93 784.05 706.40 785.25
  Q 689.02 798.83 669.32 809.95
  A 3.74 3.74 0.0 0 1 667.47 810.44
  L 568.60 810.67
  Q 568.02 810.67 567.77 811.20
  Q 559.86 828.61 543.63 838.91
  C 532.86 845.74 518.72 848.58 505.97 847.91
  Q 481.03 846.60 464.53 829.57
  C 459.29 824.16 455.48 817.91 452.27 811.16
  Z"
/>
</svg>
