<?xml version="1.0" encoding="UTF-8" standalone="no"?>
<svg xmlns="http://www.w3.org/2000/svg" version="1.2" baseProfile="tiny" viewBox="0.00 0.00 156.00 40.00">
<g stroke-width="2.00" fill="none" stroke-linecap="butt">
<path stroke="#a5aab4" vector-effect="non-scaling-stroke" d="
  M 69.42 0.00
  Q 65.27 1.52 65.98 5.81
  Q 66.09 6.50 65.47 6.82
  L 64.35 7.40
  Q 63.97 7.59 63.97 8.02
  Q 63.97 9.69 65.43 10.30
  A 0.98 0.97 -78.7 0 1 66.02 11.20
  Q 65.94 18.04 66.11 24.72
  Q 66.29 31.62 73.61 30.38
  Q 75.75 30.01 75.78 27.65
  Q 75.79 27.02 75.16 27.01
  L 71.69 26.99
  A 1.66 1.66 0.0 0 1 70.03 25.33
  L 70.04 10.69"
/>
<path stroke="#a45835" vector-effect="non-scaling-stroke" d="
  M 70.04 10.69
  L 74.26 10.55
  A 1.77 1.77 0.0 0 0 75.75 9.62
  L 76.74 7.73
  Q 77.12 7.01 76.32 6.87
  Q 73.09 6.31 70.01 7.63"
/>
<path stroke="#a5aab4" vector-effect="non-scaling-stroke" d="
  M 70.01 7.63
  L 69.87 0.00"
/>
<path stroke="#a5aab4" vector-effect="non-scaling-stroke" d="
  M 28.98 40.00
  Q 32.42 38.09 33.92 34.22
  Q 39.00 21.07 43.84 8.34
  Q 44.33 7.04 42.95 6.99
  L 41.79 6.95
  Q 40.33 6.89 39.86 8.28
  L 34.23 24.91
  Q 33.60 26.78 32.99 24.90
  Q 30.65 17.62 27.14 8.21
  Q 26.65 6.89 25.24 6.95
  L 23.85 7.01
  Q 22.50 7.07 23.00 8.32
  Q 27.00 18.37 31.19 28.91
  C 32.38 31.91 29.41 37.28 25.74 36.28
  Q 25.21 36.14 25.07 36.67
  Q 24.58 38.47 25.48 40.00"
/>
<path stroke="#a5aab4" vector-effect="non-scaling-stroke" d="
  M 103.27 9.31
  L 103.28 6.75
  Q 103.29 5.65 102.23 5.96
  L 101.31 6.23
  Q 99.97 6.62 99.98 8.01
  L 100.00 29.97
  Q 100.00 30.70 100.72 30.70
  L 103.04 30.69
  Q 103.88 30.69 103.90 29.85
  Q 104.04 23.68 103.96 15.88
  C 103.91 10.81 108.32 9.14 112.57 10.26
  Q 113.28 10.45 113.55 11.13
  Q 114.06 12.39 114.09 14.07
  Q 114.19 22.05 114.18 29.76
  Q 114.18 30.57 114.99 30.61
  L 116.98 30.71
  Q 117.89 30.75 117.92 29.84
  Q 118.10 24.04 117.96 18.02
  C 117.88 14.74 118.91 10.56 122.71 9.99
  C 125.89 9.52 129.05 10.51 129.02 14.07
  Q 128.95 22.42 129.05 29.83
  Q 129.07 30.73 129.97 30.68
  L 132.45 30.55
  A 0.57 0.57 0.0 0 0 132.99 29.98
  Q 132.98 22.20 132.99 14.81
  Q 133.01 6.84 126.00 6.39
  C 123.04 6.20 119.82 7.63 117.79 9.69
  A 0.39 0.39 0.0 0 1 117.14 9.53
  Q 116.60 7.68 114.64 7.07
  Q 108.39 5.11 103.87 9.56
  Q 103.26 10.16 103.27 9.31"
/>
<path stroke="#a5aab4" vector-effect="non-scaling-stroke" d="
  M 8.94 13.95
  C 8.36 9.34 12.60 9.70 15.60 10.13
  C 17.43 10.39 18.40 11.62 19.13 13.17
  Q 19.36 13.66 19.87 13.82
  Q 20.99 14.19 22.35 13.99
  Q 22.98 13.90 22.93 13.27
  Q 22.58 9.09 19.51 7.69
  C 13.96 5.16 3.59 5.92 4.98 14.59
  C 5.98 20.86 15.54 18.69 19.26 22.49
  C 20.84 24.09 19.95 26.39 17.95 27.10
  Q 10.76 29.68 7.68 23.66
  Q 7.46 23.22 6.99 23.06
  Q 6.01 22.73 5.06 22.94
  A 1.27 1.27 0.0 0 0 4.09 24.39
  C 5.29 31.37 13.55 31.97 19.00 30.35
  C 22.85 29.20 25.70 24.10 23.01 20.53
  C 19.66 16.09 13.62 17.56 9.47 14.80
  Q 9.01 14.49 8.94 13.95"
/>
<path stroke="#a5aab4" vector-effect="non-scaling-stroke" d="
  M 48.61 14.31
  A 2.21 2.20 -34.0 0 1 49.31 10.72
  Q 52.94 9.19 56.59 10.60
  C 58.88 11.48 58.23 14.34 61.71 14.10
  A 0.60 0.60 0.0 0 0 62.27 13.49
  C 62.16 6.00 53.38 5.41 47.99 7.42
  Q 45.97 8.17 44.93 9.98
  C 42.31 14.55 45.35 18.05 49.73 19.14
  Q 52.98 19.95 56.48 20.81
  C 59.57 21.58 60.51 25.31 57.48 26.90
  C 54.85 28.29 48.49 28.45 47.75 24.27
  A 1.31 1.31 0.0 0 0 47.14 23.37
  Q 45.52 22.39 44.31 23.33
  A 1.56 1.54 -29.1 0 0 43.80 25.09
  Q 45.65 30.17 51.04 30.92
  C 56.55 31.70 64.05 29.98 63.40 22.79
  Q 63.05 19.04 59.20 17.94
  Q 55.25 16.82 51.37 15.85
  Q 49.75 15.44 48.61 14.31"
/>
<path stroke="#a5aab4" vector-effect="non-scaling-stroke" d="
  M 79.99 21.00
  Q 79.94 20.00 80.94 20.00
  L 96.98 20.00
  A 0.97 0.96 -3.2 0 0 97.94 18.93
  C 97.26 12.53 93.48 5.16 85.71 6.44
  Q 82.02 7.04 79.87 9.27
  Q 73.08 16.27 77.96 25.88
  C 81.00 31.88 89.08 32.47 93.99 28.91
  Q 95.92 27.51 96.98 24.30
  Q 97.36 23.19 96.18 23.13
  Q 95.33 23.08 94.90 23.06
  A 1.78 1.77 -75.2 0 0 93.22 24.05
  Q 90.98 28.56 85.70 27.61
  C 82.50 27.03 80.15 24.21 79.99 21.00"
/>
<path stroke="#a5aab4" vector-effect="non-scaling-stroke" d="
  M 150.11 25.37
  C 148.15 29.00 139.72 28.64 138.70 24.27
  A 1.67 1.67 0.0 0 0 137.81 23.15
  Q 136.74 22.62 135.69 22.94
  A 0.87 0.85 -5.9 0 0 135.09 23.66
  Q 134.66 27.67 138.29 29.58
  C 142.78 31.94 150.97 31.96 153.87 26.71
  Q 155.38 23.96 154.12 21.27
  C 151.41 15.52 142.83 18.20 139.16 13.77
  A 1.08 1.07 34.1 0 1 138.96 12.77
  Q 139.74 10.24 142.69 9.98
  Q 148.20 9.51 149.39 12.50
  C 150.02 14.06 151.39 14.14 152.83 14.08
  Q 153.43 14.06 153.38 13.46
  C 152.44 2.05 131.01 5.33 135.67 15.81
  C 137.14 19.10 144.35 20.03 147.25 20.77
  C 149.22 21.28 151.23 23.30 150.11 25.37"
/>
<path stroke="#fdac80" vector-effect="non-scaling-stroke" d="
  M 70.01 7.63
  L 70.04 10.69"
/>
<path stroke="#a5aab4" vector-effect="non-scaling-stroke" d="
  M 80.33 16.07
  L 93.27 16.19
  A 0.15 0.15 0.0 0 0 93.42 16.04
  L 93.42 15.95
  A 6.49 5.94 0.5 0 0 86.99 9.95
  L 86.73 9.95
  A 6.49 5.94 0.5 0 0 80.19 15.83
  L 80.18 15.92
  A 0.15 0.15 0.0 0 0 80.33 16.07"
/>
</g>
<path fill="#000101" fill-opacity="0.004" d="
  M 0.00 0.00
  L 1.46 0.00
  L 1.42 40.00
  L 0.00 40.00
  L 0.00 0.00
  Z"
/>
<path fill="#fefefe" d="
  M 69.42 0.00
  L 69.87 0.00
  L 70.01 7.63
  L 70.04 10.69
  L 70.03 25.33
  A 1.66 1.66 0.0 0 0 71.69 26.99
  L 75.16 27.01
  Q 75.79 27.02 75.78 27.65
  Q 75.75 30.01 73.61 30.38
  Q 66.29 31.62 66.11 24.72
  Q 65.94 18.04 66.02 11.20
  A 0.98 0.97 -78.7 0 0 65.43 10.30
  Q 63.97 9.69 63.97 8.02
  Q 63.97 7.59 64.35 7.40
  L 65.47 6.82
  Q 66.09 6.50 65.98 5.81
  Q 65.27 1.52 69.42 0.00
  Z"
/>
<path fill="#fefefe" d="
  M 103.87 9.56
  Q 108.39 5.11 114.64 7.07
  Q 116.60 7.68 117.14 9.53
  A 0.39 0.39 0.0 0 0 117.79 9.69
  C 119.82 7.63 123.04 6.20 126.00 6.39
  Q 133.01 6.84 132.99 14.81
  Q 132.98 22.20 132.99 29.98
  A 0.57 0.57 0.0 0 1 132.45 30.55
  L 129.97 30.68
  Q 129.07 30.73 129.05 29.83
  Q 128.95 22.42 129.02 14.07
  C 129.05 10.51 125.89 9.52 122.71 9.99
  C 118.91 10.56 117.88 14.74 117.96 18.02
  Q 118.10 24.04 117.92 29.84
  Q 117.89 30.75 116.98 30.71
  L 114.99 30.61
  Q 114.18 30.57 114.18 29.76
  Q 114.19 22.05 114.09 14.07
  Q 114.06 12.39 113.55 11.13
  Q 113.28 10.45 112.57 10.26
  C 108.32 9.14 103.91 10.81 103.96 15.88
  Q 104.04 23.68 103.90 29.85
  Q 103.88 30.69 103.04 30.69
  L 100.72 30.70
  Q 100.00 30.70 100.00 29.97
  L 99.98 8.01
  Q 99.97 6.62 101.31 6.23
  L 102.23 5.96
  Q 103.29 5.65 103.28 6.75
  L 103.27 9.31
  Q 103.26 10.16 103.87 9.56
  Z"
/>
<path fill="#fefefe" d="
  M 9.47 14.80
  C 13.62 17.56 19.66 16.09 23.01 20.53
  C 25.70 24.10 22.85 29.20 19.00 30.35
  C 13.55 31.97 5.29 31.37 4.09 24.39
  A 1.27 1.27 0.0 0 1 5.06 22.94
  Q 6.01 22.73 6.99 23.06
  Q 7.46 23.22 7.68 23.66
  Q 10.76 29.68 17.95 27.10
  C 19.95 26.39 20.84 24.09 19.26 22.49
  C 15.54 18.69 5.98 20.86 4.98 14.59
  C 3.59 5.92 13.96 5.16 19.51 7.69
  Q 22.58 9.09 22.93 13.27
  Q 22.98 13.90 22.35 13.99
  Q 20.99 14.19 19.87 13.82
  Q 19.36 13.66 19.13 13.17
  C 18.40 11.62 17.43 10.39 15.60 10.13
  C 12.60 9.70 8.36 9.34 8.94 13.95
  Q 9.01 14.49 9.47 14.80
  Z"
/>
<path fill="#fefefe" d="
  M 48.61 14.31
  Q 49.75 15.44 51.37 15.85
  Q 55.25 16.82 59.20 17.94
  Q 63.05 19.04 63.40 22.79
  C 64.05 29.98 56.55 31.70 51.04 30.92
  Q 45.65 30.17 43.80 25.09
  A 1.56 1.54 -29.1 0 1 44.31 23.33
  Q 45.52 22.39 47.14 23.37
  A 1.31 1.31 0.0 0 1 47.75 24.27
  C 48.49 28.45 54.85 28.29 57.48 26.90
  C 60.51 25.31 59.57 21.58 56.48 20.81
  Q 52.98 19.95 49.73 19.14
  C 45.35 18.05 42.31 14.55 44.93 9.98
  Q 45.97 8.17 47.99 7.42
  C 53.38 5.41 62.16 6.00 62.27 13.49
  A 0.60 0.60 0.0 0 1 61.71 14.10
  C 58.23 14.34 58.88 11.48 56.59 10.60
  Q 52.94 9.19 49.31 10.72
  A 2.21 2.20 -34.0 0 0 48.61 14.31
  Z"
/>
<path fill="#fefefe" d="
  M 79.99 21.00
  C 80.15 24.21 82.50 27.03 85.70 27.61
  Q 90.98 28.56 93.22 24.05
  A 1.78 1.77 -75.2 0 1 94.90 23.06
  Q 95.33 23.08 96.18 23.13
  Q 97.36 23.19 96.98 24.30
  Q 95.92 27.51 93.99 28.91
  C 89.08 32.47 81.00 31.88 77.96 25.88
  Q 73.08 16.27 79.87 9.27
  Q 82.02 7.04 85.71 6.44
  C 93.48 5.16 97.26 12.53 97.94 18.93
  A 0.97 0.96 -3.2 0 1 96.98 20.00
  L 80.94 20.00
  Q 79.94 20.00 79.99 21.00
  Z
  M 80.33 16.07
  L 93.27 16.19
  A 0.15 0.15 0.0 0 0 93.42 16.04
  L 93.42 15.95
  A 6.49 5.94 0.5 0 0 86.99 9.95
  L 86.73 9.95
  A 6.49 5.94 0.5 0 0 80.19 15.83
  L 80.18 15.92
  A 0.15 0.15 0.0 0 0 80.33 16.07
  Z"
/>
<path fill="#fefefe" d="
  M 150.11 25.37
  C 151.23 23.30 149.22 21.28 147.25 20.77
  C 144.35 20.03 137.14 19.10 135.67 15.81
  C 131.01 5.33 152.44 2.05 153.38 13.46
  Q 153.43 14.06 152.83 14.08
  C 151.39 14.14 150.02 14.06 149.39 12.50
  Q 148.20 9.51 142.69 9.98
  Q 139.74 10.24 138.96 12.77
  A 1.08 1.07 34.1 0 0 139.16 13.77
  C 142.83 18.20 151.41 15.52 154.12 21.27
  Q 155.38 23.96 153.87 26.71
  C 150.97 31.96 142.78 31.94 138.29 29.58
  Q 134.66 27.67 135.09 23.66
  A 0.87 0.85 -5.9 0 1 135.69 22.94
  Q 136.74 22.62 137.81 23.15
  A 1.67 1.67 0.0 0 1 138.70 24.27
  C 139.72 28.64 148.15 29.00 150.11 25.37
  Z"
/>
<path fill="#fc5a01" d="
  M 70.04 10.69
  L 70.01 7.63
  Q 73.09 6.31 76.32 6.87
  Q 77.12 7.01 76.74 7.73
  L 75.75 9.62
  A 1.77 1.77 0.0 0 1 74.26 10.55
  L 70.04 10.69
  Z"
/>
<path fill="#fefefe" d="
  M 28.98 40.00
  L 25.48 40.00
  Q 24.58 38.47 25.07 36.67
  Q 25.21 36.14 25.74 36.28
  C 29.41 37.28 32.38 31.91 31.19 28.91
  Q 27.00 18.37 23.00 8.32
  Q 22.50 7.07 23.85 7.01
  L 25.24 6.95
  Q 26.65 6.89 27.14 8.21
  Q 30.65 17.62 32.99 24.90
  Q 33.60 26.78 34.23 24.91
  L 39.86 8.28
  Q 40.33 6.89 41.79 6.95
  L 42.95 6.99
  Q 44.33 7.04 43.84 8.34
  Q 39.00 21.07 33.92 34.22
  Q 32.42 38.09 28.98 40.00
  Z"
/>
</svg>
