<svg xmlns="http://www.w3.org/2000/svg"  viewBox="0 0 50 50" width="50px" height="50px"><path d="M 20.1875 3.015625 C 19.636719 2.914063 19.121094 3.269531 19.015625 3.8125 L 18.03125 9 L 8 9 C 7.445313 9 7 9.449219 7 10 L 7 34 L 3 34 L 3 36 L 47 36 L 47 34 L 43 34 L 43 10 C 43 9.449219 42.554688 9 42 9 L 31.96875 9 L 30.984375 3.8125 C 30.878906 3.269531 30.363281 2.917969 29.8125 3.015625 C 29.269531 3.121094 28.914063 3.644531 29.015625 4.1875 L 29.933594 9 L 20.066406 9 L 20.984375 4.1875 C 21.085938 3.644531 20.730469 3.121094 20.1875 3.015625 Z M 14.5 14 C 15.328125 14 16 14.671875 16 15.5 C 16 16.328125 15.328125 17 14.5 17 C 13.671875 17 13 16.328125 13 15.5 C 13 14.671875 13.671875 14 14.5 14 Z M 29.488281 18.734375 L 38 30 L 20.457031 30 Z M 21 19 L 23.761719 22.679688 L 17.890625 30 L 12 30 Z M 12.503906 38 L 11.015625 45.8125 C 10.914063 46.355469 11.269531 46.878906 11.8125 46.984375 C 11.875 46.996094 11.941406 47 12 47 C 12.472656 47 12.890625 46.667969 12.984375 46.1875 L 14.542969 38 Z M 24 38 L 24 43 C 24 43.550781 24.445313 44 25 44 C 25.554688 44 26 43.550781 26 43 L 26 38 Z M 35.457031 38 L 37.015625 46.1875 C 37.109375 46.667969 37.527344 47 38 47 C 38.058594 47 38.125 46.996094 38.1875 46.984375 C 38.730469 46.878906 39.085938 46.355469 38.984375 45.8125 L 37.496094 38 Z"/></svg>